<svg width="200" height="45" viewBox="0 0 208 63" fill="none" xmlns="http://www.w3.org/2000/svg">
    <g clip-path="url(#clip0)">
        <path d="M48.9809 31.547C48.9809 37.213 48.9668 42.8762 48.9979 48.5393C49.0204 48.9741 48.9109 49.4054 48.684 49.7759C48.4571 50.1463 48.1237 50.4383 47.728 50.6129C46.6303 51.196 45.5466 51.799 44.4574 52.3934C38.3583 55.7308 32.2591 59.0663 26.16 62.4C25.9568 62.5109 25.7452 62.6076 25.542 62.7185C25.2273 62.901 24.8707 62.997 24.5077 62.997C24.1448 62.997 23.7881 62.901 23.4735 62.7185C22.452 62.1686 21.4314 61.6159 20.4117 61.0603L1.40883 50.6868C1.19729 50.5697 0.991948 50.4415 0.793645 50.3028C0.566585 50.1643 0.376628 49.9719 0.240369 49.7423C0.104109 49.5128 0.0256928 49.253 0.0119696 48.9859C0.0119696 48.7327 -0.0134277 48.4796 -0.0134277 48.2293C-0.00590258 37.1647 -0.00214001 26.0991 -0.00214001 15.0326C-0.00214001 14.6088 0.040189 14.1793 0.0768741 13.7583C0.0997155 13.5179 0.182948 13.2872 0.318722 13.0882C0.454496 12.8891 0.638336 12.7282 0.852905 12.6206C2.09644 11.9171 3.34655 11.2183 4.60325 10.5243C10.7814 7.15276 16.9595 3.77648 23.1377 0.395474C24.0322 -0.0937583 24.8591 -0.15349 25.7818 0.355653C30.3402 2.86818 34.907 5.36554 39.4823 7.84773C42.229 9.34577 44.9729 10.8476 47.7139 12.3532C47.9581 12.4924 48.192 12.6492 48.4137 12.8225C48.5934 12.9676 48.7377 13.1523 48.8355 13.3623C48.9333 13.5724 48.9821 13.8022 48.9781 14.0342C48.9781 14.2476 48.9781 14.4609 48.9781 14.6742C48.9838 20.2985 48.9847 25.9228 48.9809 31.547ZM5.24101 14.0684C5.35953 14.1423 5.43008 14.1935 5.5232 14.2362C11.7446 17.64 17.9707 21.0485 24.2016 24.4617C24.2925 24.5205 24.3983 24.5518 24.5063 24.5518C24.6144 24.5518 24.7202 24.5205 24.8111 24.4617C30.9234 21.111 37.0376 17.7651 43.1537 14.4239C43.3455 14.3187 43.5346 14.2077 43.7688 14.0741L43.4246 13.8721L29.9329 6.47105C28.2172 5.5381 26.524 4.61652 24.8026 3.69779C24.7097 3.63865 24.6021 3.60726 24.4922 3.60726C24.3823 3.60726 24.2747 3.63865 24.1818 3.69779C23.6344 3.99929 23.0756 4.26666 22.5282 4.58239C16.9144 7.65621 11.2988 10.7348 5.68123 13.8181L5.24101 14.0684ZM26.3011 58.4406C26.8344 58.1704 27.3085 57.9514 27.7657 57.701C30.9808 55.9432 34.1912 54.1816 37.3969 52.4162C40.0307 50.9675 42.6532 49.5187 45.2645 48.07C45.3537 48.0322 45.4289 47.9671 45.4795 47.8839C45.5302 47.8008 45.5536 47.7037 45.5466 47.6064C45.5466 37.5316 45.5466 27.4559 45.5466 17.3792C45.5466 17.2797 45.5467 17.1773 45.5213 17.0038C44.9145 17.3081 44.3586 17.5726 43.8281 17.8571C40.4042 19.7249 36.9877 21.5946 33.5788 23.4662C31.4539 24.6295 29.3459 25.8071 27.2013 26.942C26.5438 27.289 26.2616 27.6958 26.2644 28.4495C26.2964 38.2835 26.3039 48.1165 26.287 57.9485L26.3011 58.4406ZM3.60993 17.0663L3.47166 17.1204V46.9323C3.47166 47.1456 3.47166 47.3589 3.49141 47.5722C3.49484 47.6966 3.5322 47.8176 3.59941 47.922C3.66662 48.0264 3.76106 48.1101 3.87237 48.1639C4.97857 48.7498 6.08194 49.3386 7.18814 49.9217C7.30136 49.9725 7.41723 50.0172 7.53524 50.0554V49.6202C7.53524 46.7132 7.53524 43.8034 7.56064 40.8937C7.55731 40.206 7.58934 39.5186 7.65658 38.8343C7.67481 38.696 7.72444 38.5638 7.80162 38.448C7.87879 38.3321 7.98143 38.2358 8.10155 38.1664C8.22168 38.0971 8.35605 38.0566 8.49422 38.0481C8.63239 38.0396 8.77065 38.0634 8.89823 38.1175C9.21519 38.2211 9.52216 38.3534 9.81536 38.5129C12.4567 39.9721 15.0839 41.4511 17.7168 42.9018C18.041 43.0462 18.3137 43.287 18.4983 43.5921C18.6829 43.8971 18.7706 44.2517 18.7496 44.6084C18.7242 48.3886 18.7496 52.1716 18.7496 55.9518C18.7403 56.0524 18.7625 56.1534 18.8131 56.2407C18.8638 56.3279 18.9402 56.397 19.0318 56.4381C19.8784 56.9075 20.7249 57.3939 21.5715 57.8603C21.913 58.0481 22.2714 58.2045 22.7003 58.4093C22.7313 57.7238 22.7821 57.1066 22.7821 56.4893C22.7821 47.247 22.7821 38.0057 22.7821 28.7652C22.7821 27.4142 22.8216 27.5109 21.5969 26.8396C16.1205 23.8416 10.6384 20.8408 5.15071 17.8372C4.65123 17.5641 4.12352 17.328 3.60993 17.0663ZM9.65733 40.6945C9.65733 40.8339 9.63193 40.9079 9.63193 40.979C9.63193 44.3619 9.6404 47.7448 9.65733 51.1277C9.65128 51.2051 9.6692 51.2825 9.70862 51.3493C9.74804 51.416 9.80702 51.4688 9.87744 51.5003C12.039 52.657 14.2025 53.8185 16.3679 54.9847C16.4524 55.0255 16.539 55.0616 16.6275 55.0928C16.6275 54.9562 16.6473 54.8595 16.6473 54.7657C16.6473 51.4605 16.6585 48.1553 16.6811 44.8502C16.6818 44.7674 16.6569 44.6866 16.6098 44.6188C16.5628 44.551 16.496 44.4996 16.4187 44.4719L12.1068 42.0684L9.65733 40.6945Z" fill="black"/>
        <path d="M5.2373 14.0683L5.68317 13.818C11.3007 10.7347 16.9163 7.65233 22.5301 4.57093C23.0776 4.26658 23.6363 3.98214 24.1837 3.69771C24.2767 3.63857 24.3843 3.60718 24.4942 3.60718C24.604 3.60718 24.7117 3.63857 24.8046 3.69771C26.4977 4.63066 28.2276 5.55224 29.9348 6.48519L43.4265 13.8635L43.7708 14.0654C43.5366 14.1991 43.3475 14.3101 43.1556 14.4153C37.0395 17.7565 30.9253 21.1024 24.813 24.4531C24.7221 24.5119 24.6163 24.5432 24.5083 24.5432C24.4002 24.5432 24.2944 24.5119 24.2035 24.4531C17.9727 21.0455 11.74 17.6399 5.50539 14.2361C5.42637 14.1934 5.36147 14.1422 5.2373 14.0683Z" fill="#4BC4F9"/>
        <path d="M26.2975 58.4433V57.9484C26.2975 48.1164 26.29 38.2834 26.2749 28.4494C26.2749 27.6957 26.5571 27.2889 27.2118 26.9419C29.3508 25.8042 31.4644 24.6294 33.5893 23.4661C36.9945 21.6002 40.4006 19.7333 43.8076 17.8655C44.3437 17.5811 44.8997 17.2966 45.5007 17.0122C45.5007 17.1857 45.5261 17.2966 45.5261 17.3877C45.5261 27.4662 45.5261 37.5419 45.5261 47.6148C45.5331 47.7121 45.5096 47.8092 45.459 47.8924C45.4084 47.9755 45.3332 48.0406 45.2439 48.0784C42.6195 49.5234 39.997 50.9721 37.3764 52.4246C34.1688 54.1881 30.9584 55.9498 27.7451 57.7095C27.3049 57.9541 26.8308 58.1731 26.2975 58.4433ZM43.6016 27.5904H43.5564C43.5564 26.5352 43.579 25.4771 43.5564 24.4218C43.5628 24.2434 43.522 24.0665 43.4382 23.9093C43.3544 23.752 43.2307 23.62 43.0797 23.5268C42.9286 23.4336 42.7557 23.3826 42.5787 23.3789C42.4016 23.3752 42.2268 23.4191 42.0721 23.5059C40.5144 24.3137 38.9877 25.1699 37.4526 26.0175C37.3124 26.0924 37.1934 26.2019 37.1066 26.3356C37.0197 26.4694 36.9679 26.6232 36.9559 26.7826C36.9249 27.1296 36.9023 27.4767 36.9023 27.8265C36.9023 29.4061 36.9023 30.9857 36.9023 32.5652C36.9023 32.9322 36.9221 33.2991 36.9559 33.666C37.0236 34.3913 37.5767 34.744 38.3133 34.5193C38.6116 34.4262 38.9007 34.3053 39.1768 34.1581C40.0064 33.72 40.8276 33.2678 41.646 32.8127C42.0862 32.5709 42.5292 32.3291 42.9525 32.0589C43.1118 31.9786 43.2492 31.8601 43.3525 31.7138C43.4558 31.5675 43.522 31.3979 43.5451 31.2198C43.5649 30.9354 43.6016 30.6794 43.6044 30.4092C43.6072 29.4791 43.6016 28.5404 43.6016 27.5904ZM43.6016 40.9391H43.5592C43.5592 39.9037 43.579 38.8655 43.5592 37.8302C43.5395 36.9143 42.786 36.4791 41.9338 36.9029C40.8615 37.4405 39.8117 38.0236 38.7591 38.6095C38.2992 38.8598 37.8533 39.1357 37.4131 39.4116C37.272 39.4937 37.1549 39.6119 37.0736 39.7543C36.9923 39.8966 36.9498 40.0581 36.9503 40.2223C36.9305 41.36 36.9023 42.5291 36.9023 43.681C36.9023 44.7761 36.9192 45.8712 36.9616 46.9634C36.9825 47.216 37.0812 47.4556 37.2437 47.6489C37.5485 48.0216 38.0198 48.0955 38.5813 47.7997C40.0713 47.0175 41.5415 46.1983 43.0118 45.382C43.1628 45.3068 43.2921 45.1939 43.3875 45.0539C43.4828 44.914 43.541 44.7518 43.5564 44.5827C43.579 44.3125 43.6128 44.0423 43.6157 43.7721C43.6072 42.8277 43.6016 41.8891 43.6016 40.959V40.9391ZM34.8 46.0362C34.8 45.2597 34.8 44.4832 34.8 43.7095C34.8099 43.2737 34.793 42.8376 34.7492 42.4039C34.6617 41.6957 34.1001 41.3799 33.4087 41.6587C32.9038 41.8631 32.4119 42.0987 31.9357 42.3641C30.8577 42.9557 29.791 43.5644 28.7215 44.1731C28.5766 44.2478 28.455 44.3615 28.3704 44.5016C28.2857 44.6416 28.2412 44.8026 28.2418 44.9667C28.2418 45.382 28.1966 45.7973 28.1938 46.2125C28.1938 47.813 28.1938 49.4134 28.1938 51.0138C28.1953 51.2851 28.2151 51.5559 28.2531 51.8245C28.3603 52.6607 29.063 53.039 29.8503 52.6266C31.3318 51.8444 32.7879 51.0224 34.2525 50.2089C34.4309 50.1204 34.5795 49.981 34.6799 49.8081C34.7802 49.6351 34.8279 49.4362 34.8169 49.2361C34.7943 48.178 34.8 47.1114 34.8 46.0447V46.0362ZM34.8 32.5339C34.8 31.5157 34.8 30.5002 34.8 29.4819C34.8001 29.2977 34.7831 29.1139 34.7492 28.933C34.718 28.7326 34.6142 28.5509 34.4578 28.4232C34.3014 28.2955 34.1036 28.2309 33.9026 28.2418C33.65 28.2335 33.3989 28.2841 33.1689 28.3897C31.6526 29.2089 30.1475 30.0461 28.6538 30.9013C28.461 31.0463 28.3243 31.2545 28.2672 31.4901C28.2077 31.7645 28.1849 32.0458 28.1995 32.3263C28.1995 33.831 28.1995 35.3328 28.1995 36.8375C28.1995 37.3893 28.2249 37.9411 28.2559 38.4929C28.2954 39.2296 28.9275 39.6136 29.6669 39.3462C29.8856 39.2661 30.0987 39.1711 30.3046 39.0618C31.535 38.3877 32.7569 37.6993 33.9929 37.0366C34.2639 36.9186 34.4913 36.7179 34.6431 36.4628C34.795 36.2076 34.8637 35.9109 34.8395 35.6144C34.7858 34.599 34.8084 33.5636 34.8084 32.5425L34.8 32.5339Z" fill="#4BC4F9"/>
        <path d="M3.61191 17.0663C4.1255 17.3223 4.6532 17.5584 5.15268 17.8314C10.6423 20.8389 16.1272 23.8473 21.6074 26.8566C22.8321 27.5279 22.7926 27.4255 22.7926 28.7823C22.7926 38.0246 22.7926 47.2659 22.7926 56.5063C22.7926 57.1236 22.7418 57.7408 22.7107 58.4263C22.2846 58.2215 21.9262 58.0651 21.582 57.8773C20.7354 57.408 19.8888 56.9216 19.0422 56.4551C18.9507 56.414 18.8742 56.3449 18.8236 56.2577C18.773 56.1704 18.7507 56.0694 18.76 55.9688C18.76 52.1886 18.729 48.4056 18.76 44.6254C18.7811 44.2687 18.6934 43.9141 18.5088 43.6091C18.3242 43.304 18.0515 43.0632 17.7272 42.9188C15.0831 41.4682 12.4558 39.9891 9.8258 38.5299C9.53059 38.3631 9.22075 38.2241 8.90021 38.1146C8.77262 38.0605 8.63437 38.0367 8.4962 38.0452C8.35802 38.0537 8.22365 38.0942 8.10353 38.1635C7.9834 38.2329 7.88077 38.3292 7.80359 38.4451C7.72642 38.5609 7.67679 38.6931 7.65856 38.8314C7.59131 39.5157 7.55929 40.2031 7.56261 40.8907C7.54568 43.8005 7.54568 46.7103 7.53721 49.6173V50.061C7.4192 50.0228 7.30333 49.9782 7.19012 49.9273C6.08392 49.3442 4.98054 48.7554 3.87435 48.1695C3.76304 48.1157 3.66859 48.032 3.60138 47.9276C3.53418 47.8233 3.49681 47.7022 3.49339 47.5779C3.47928 47.3645 3.47363 47.1512 3.47363 46.9379V17.126L3.61191 17.0663ZM12.0325 30.2699C12.0325 29.1549 12.0325 28.0427 12.0325 26.9277C12.0357 26.7099 11.9768 26.4957 11.8627 26.3107C11.7487 26.1256 11.5843 25.9775 11.3891 25.8838C10.1362 25.1898 8.8861 24.4929 7.62752 23.8074C7.35752 23.6636 7.07391 23.5473 6.78094 23.4604C6.64107 23.4049 6.49012 23.3835 6.34048 23.3981C6.19084 23.4128 6.04678 23.4629 5.9201 23.5445C5.79342 23.6262 5.68775 23.7369 5.61174 23.8676C5.53573 23.9984 5.49156 24.1454 5.48285 24.2967C5.46874 24.4787 5.46592 24.6636 5.46874 24.8485C5.46874 26.9419 5.46874 29.0354 5.48285 31.1289C5.47576 31.3082 5.51951 31.4858 5.60897 31.641C5.69843 31.7961 5.82989 31.9224 5.98797 32.0049C6.57493 32.3377 7.15343 32.6876 7.74604 33.0061C8.69703 33.5181 9.64237 34.0387 10.6188 34.5023C10.7646 34.5835 10.9291 34.6248 11.0957 34.6218C11.2623 34.6188 11.4252 34.5717 11.5681 34.4853C11.711 34.3989 11.8289 34.2762 11.9099 34.1294C11.9909 33.9826 12.0322 33.8169 12.0297 33.649C12.041 32.5254 12.0325 31.4019 12.0325 30.2755V30.2699ZM14.1631 32.5823C14.1631 33.6092 14.1857 34.636 14.1631 35.6628C14.1514 35.9397 14.2202 36.214 14.3611 36.452C14.502 36.69 14.7088 36.8813 14.9561 37.0025C15.0351 37.048 15.1113 37.0964 15.1903 37.139C16.1074 37.6482 17.0245 38.1573 17.9445 38.6579C18.3678 38.8912 18.7911 39.1215 19.2398 39.3178C20.0299 39.6734 20.7156 39.2524 20.7269 38.4275C20.7269 38.0976 20.7495 37.7676 20.7495 37.4405C20.7495 35.5604 20.7269 33.6803 20.7354 31.8001C20.7395 31.5482 20.6686 31.3007 20.5317 31.0898C20.3949 30.8788 20.1985 30.7141 19.9678 30.6169C18.9745 30.0793 17.9925 29.5246 17.002 28.987C16.6005 28.7525 16.1849 28.5435 15.7575 28.3613C14.8263 28.0029 14.1941 28.4068 14.1744 29.3597C14.149 30.4348 14.1631 31.51 14.1631 32.588V32.5823Z" fill="#4BC4F9"/>
        <path d="M9.65943 40.7002L12.1089 42.0683L16.4067 44.4804C16.484 44.5081 16.5508 44.5595 16.5978 44.6273C16.6448 44.6951 16.6698 44.7759 16.6691 44.8587C16.6559 48.1638 16.6494 51.469 16.6494 54.7742C16.6494 54.868 16.6494 54.9647 16.6296 55.1013C16.5411 55.0701 16.4545 55.034 16.37 54.9932C14.2103 53.8327 12.0468 52.6712 9.87954 51.5088C9.80912 51.4773 9.75014 51.4245 9.71072 51.3578C9.6713 51.291 9.65338 51.2136 9.65943 51.1362C9.65943 47.7533 9.65096 44.3704 9.63403 40.9875C9.63403 40.9135 9.64532 40.8396 9.65943 40.7002Z" fill="#FAFBFC"/>
        <path d="M43.6017 27.5904C43.6017 28.5319 43.6017 29.4705 43.6017 30.4092C43.6017 30.6936 43.5622 30.9496 43.5425 31.2198C43.5193 31.3979 43.4532 31.5675 43.3499 31.7137C43.2465 31.86 43.1092 31.9785 42.9499 32.0589C42.5266 32.3433 42.0835 32.5709 41.6433 32.8127C40.825 33.2678 40.0038 33.72 39.1741 34.158C38.8981 34.3053 38.609 34.4262 38.3106 34.5193C37.5741 34.744 37.021 34.3913 36.9533 33.666C36.9194 33.299 36.8997 32.9321 36.8997 32.5652C36.8997 30.9837 36.8997 29.4041 36.8997 27.8265C36.8997 27.4766 36.9222 27.1296 36.9533 26.7826C36.9653 26.6232 37.0171 26.4694 37.1039 26.3356C37.1908 26.2018 37.3098 26.0924 37.4499 26.0174C38.9851 25.1641 40.5117 24.3108 42.0694 23.5059C42.2242 23.419 42.399 23.3752 42.576 23.3789C42.7531 23.3826 42.926 23.4336 43.077 23.5268C43.2281 23.62 43.3518 23.752 43.4356 23.9092C43.5193 24.0665 43.5601 24.2434 43.5538 24.4218C43.582 25.477 43.5538 26.5351 43.5538 27.5904H43.6017ZM39.0189 31.9423C39.8458 31.4843 40.5964 31.089 41.3357 30.6481C41.3737 30.6115 41.4036 30.5672 41.4235 30.5182C41.4435 30.4693 41.453 30.4166 41.4514 30.3636C41.4514 29.0552 41.4514 27.7468 41.4514 26.4384C41.4514 26.3559 41.4317 26.2763 41.4176 26.154C41.2906 26.208 41.1975 26.2422 41.11 26.2877C40.5117 26.6034 39.9163 26.9248 39.3124 27.2292C39.2233 27.2638 39.1477 27.3266 39.0968 27.4081C39.046 27.4896 39.0226 27.5854 39.0302 27.6814C39.0302 28.9813 39.0302 30.2812 39.0302 31.5782L39.0189 31.9423Z" fill="black"/>
        <path d="M43.6016 40.959C43.6016 41.9005 43.6016 42.8391 43.6016 43.7806C43.6016 44.0651 43.5649 44.321 43.5423 44.5913C43.5269 44.7603 43.4687 44.9226 43.3734 45.0625C43.278 45.2024 43.1487 45.3154 42.9977 45.3905C41.5274 46.2069 40.0572 47.026 38.5672 47.8082C38.0028 48.0927 37.5344 48.0301 37.2296 47.6575C37.0671 47.4642 36.9684 47.2245 36.9474 46.972C36.9051 45.8798 36.8882 44.7847 36.8882 43.6896C36.8882 42.5376 36.9164 41.3828 36.9362 40.2308C36.9357 40.0666 36.9782 39.9052 37.0595 39.7628C37.1408 39.6205 37.2579 39.5023 37.399 39.4202C37.8392 39.1358 38.285 38.8684 38.745 38.6181C39.7976 38.0492 40.8474 37.4604 41.9197 36.9115C42.7663 36.4877 43.5254 36.9115 43.5451 37.8387C43.5705 38.8741 43.5451 39.9123 43.5451 40.9476L43.6016 40.959ZM41.4287 39.4686C40.6696 39.8725 39.981 40.2479 39.284 40.6063C39.2034 40.6396 39.1356 40.6984 39.0908 40.7737C39.0461 40.8491 39.0267 40.937 39.0357 41.0244C39.0357 42.3328 39.0357 43.6412 39.0187 44.9497C39.0187 45.0435 39.0187 45.1345 39.0385 45.2711C39.1655 45.2113 39.2558 45.1744 39.3404 45.1288C39.9613 44.7904 40.5764 44.4434 41.2029 44.1163C41.2839 44.0852 41.3527 44.0284 41.399 43.9546C41.4453 43.8807 41.4666 43.7937 41.4597 43.7067C41.4597 42.4068 41.4597 41.1098 41.4597 39.8099C41.4569 39.7132 41.4428 39.6307 41.4287 39.4572V39.4686Z" fill="black"/>
        <path d="M34.8001 46.0448C34.8001 47.1114 34.8001 48.178 34.8001 49.2447C34.8111 49.4448 34.7634 49.6437 34.6631 49.8167C34.5627 49.9896 34.4141 50.129 34.2357 50.2175C32.7711 51.031 31.315 51.853 29.8335 52.6352C29.0462 53.0476 28.3435 52.6693 28.2363 51.8331C28.1983 51.5645 28.1785 51.2937 28.177 51.0224C28.177 49.422 28.177 47.8216 28.177 46.2211C28.177 45.8058 28.2137 45.3906 28.225 44.9753C28.2244 44.8112 28.2689 44.6502 28.3535 44.5101C28.4382 44.37 28.5598 44.2564 28.7047 44.1817C29.7742 43.573 30.8409 42.9643 31.9189 42.3727C32.3951 42.1073 32.887 41.8717 33.3919 41.6673C34.0833 41.3828 34.6449 41.7042 34.7323 42.4125C34.7761 42.8462 34.7931 43.2822 34.7831 43.7181C34.7831 44.4917 34.7831 45.2683 34.7831 46.0448H34.8001ZM30.3273 49.9842C30.3742 49.9854 30.4209 49.9786 30.4656 49.9643C31.1739 49.6002 31.8766 49.2362 32.582 48.8579C32.6256 48.8243 32.6611 48.7813 32.686 48.7321C32.7109 48.6829 32.7246 48.6287 32.726 48.5734C32.726 47.228 32.726 45.8826 32.726 44.5344C32.7196 44.472 32.7083 44.4101 32.6921 44.3495C32.6539 44.3523 32.6161 44.3589 32.5792 44.3694C31.8624 44.7563 31.14 45.1403 30.4345 45.5442C30.3903 45.5835 30.3552 45.6322 30.3318 45.6868C30.3084 45.7413 30.2972 45.8004 30.2991 45.8599C30.2991 46.5596 30.3188 47.2565 30.3245 47.9533C30.3301 48.6502 30.3273 49.2874 30.3273 49.9842Z" fill="black"/>
        <path d="M34.8083 32.5425C34.8083 33.5722 34.7857 34.599 34.8083 35.6287C34.8325 35.9252 34.7639 36.2219 34.612 36.477C34.4601 36.7322 34.2327 36.9329 33.9617 37.0509C32.7257 37.7136 31.5038 38.4019 30.2735 39.0761C30.0675 39.1853 29.8545 39.2804 29.6357 39.3605C28.9077 39.6279 28.2755 39.2439 28.2248 38.5072C28.1937 37.9554 28.1711 37.4036 28.1683 36.8518C28.1683 35.3471 28.1683 33.8453 28.1683 32.3406C28.1538 32.06 28.1766 31.7788 28.236 31.5043C28.2931 31.2688 28.4298 31.0606 28.6226 30.9156C30.1145 30.0566 31.6195 29.2194 33.1377 28.404C33.3677 28.2984 33.6188 28.2478 33.8714 28.2561C34.0724 28.2452 34.2702 28.3098 34.4266 28.4375C34.583 28.5652 34.6869 28.7468 34.718 28.9472C34.752 29.1282 34.769 29.312 34.7688 29.4962C34.8111 30.5088 34.8083 31.5243 34.8083 32.5425ZM32.7568 30.9582C32.6696 30.9861 32.5839 31.0184 32.5 31.0549C31.913 31.365 31.3317 31.6892 30.7334 31.9822C30.5854 32.0467 30.462 32.1577 30.3816 32.2986C30.3013 32.4396 30.2683 32.603 30.2876 32.7644C30.3073 33.996 30.313 35.2248 30.3271 36.4621C30.3271 36.5275 30.3271 36.5929 30.3468 36.6811C30.4265 36.6529 30.5047 36.6206 30.5811 36.5844C31.2301 36.2431 31.8791 35.8932 32.5338 35.5576C32.6002 35.5302 32.6559 35.4818 32.6925 35.4197C32.7292 35.3576 32.7448 35.2852 32.737 35.2134C32.737 34.5535 32.737 33.8936 32.7568 33.2223C32.7596 32.4885 32.7568 31.7461 32.7568 30.9582Z" fill="black"/>
        <path d="M12.0327 30.2756C12.0327 31.4133 12.0327 32.5255 12.0327 33.649C12.0352 33.8169 11.9938 33.9826 11.9128 34.1294C11.8318 34.2762 11.714 34.3989 11.5711 34.4853C11.4282 34.5718 11.2653 34.6188 11.0986 34.6218C10.932 34.6248 10.7675 34.5836 10.6217 34.5023C9.64531 34.0387 8.69997 33.5181 7.74898 33.0062C7.15637 32.6876 6.57788 32.3377 5.99091 32.0049C5.83284 31.9224 5.70137 31.7961 5.61191 31.641C5.52245 31.4858 5.4787 31.3082 5.48579 31.1289C5.48579 29.0354 5.48579 26.942 5.47168 24.8485C5.47168 24.6636 5.47168 24.4787 5.48579 24.2967C5.4945 24.1454 5.53867 23.9984 5.61468 23.8676C5.69069 23.7369 5.79636 23.6262 5.92304 23.5445C6.04972 23.4629 6.19379 23.4128 6.34342 23.3981C6.49306 23.3835 6.64401 23.4049 6.78388 23.4604C7.07686 23.5473 7.36046 23.6636 7.63046 23.8075C8.88904 24.4929 10.1392 25.1898 11.3921 25.8838C11.5889 25.9756 11.7553 26.1226 11.8714 26.3073C11.9875 26.4919 12.0484 26.7063 12.0468 26.9249C12.0468 28.0399 12.0468 29.152 12.0468 30.267L12.0327 30.2756ZM7.60224 26.1455C7.58495 26.206 7.57268 26.2679 7.56555 26.3304C7.56555 27.6986 7.56555 29.0639 7.56555 30.432C7.57523 30.4913 7.59801 30.5476 7.6322 30.5969C7.66639 30.6461 7.71112 30.687 7.76309 30.7164C8.39238 31.0777 9.03013 31.4218 9.66789 31.7689C9.76101 31.8201 9.85978 31.857 9.97266 31.9082C9.98493 31.8577 9.99342 31.8064 9.99806 31.7546C9.98395 30.358 9.97548 28.9615 9.95008 27.5649C9.93897 27.5057 9.91532 27.4497 9.88074 27.4006C9.84616 27.3515 9.80147 27.3105 9.74973 27.2804C9.26153 26.996 8.75923 26.7343 8.25975 26.4698C8.05939 26.3617 7.83928 26.2621 7.60224 26.1455Z" fill="black"/>
        <path d="M14.1632 32.5881C14.1632 31.5101 14.1632 30.4349 14.1632 29.3597C14.183 28.4069 14.8151 28.003 15.7463 28.3613C16.1737 28.5435 16.5894 28.7525 16.9908 28.9871C17.9813 29.5247 18.9662 30.0793 19.9567 30.6169C20.1873 30.7142 20.3838 30.8789 20.5206 31.0898C20.6574 31.3008 20.7284 31.5482 20.7242 31.8002C20.7242 33.6803 20.7242 35.5604 20.7383 37.4406C20.7383 37.7677 20.7186 38.0976 20.7158 38.4276C20.7158 39.2524 20.0187 39.6734 19.2286 39.3179C18.7856 39.1216 18.3566 38.8912 17.9333 38.658C17.0134 38.1574 16.0963 37.6482 15.1791 37.1391C15.1001 37.0964 15.0239 37.048 14.9449 37.0025C14.6969 36.883 14.489 36.6931 14.3466 36.4561C14.2042 36.2191 14.1336 35.9454 14.1435 35.6685C14.1745 34.6417 14.1435 33.6149 14.1435 32.5881H14.1632ZM18.7037 36.7409C18.7037 35.2419 18.7037 33.8396 18.7037 32.4345C18.6938 32.3727 18.6708 32.3137 18.6362 32.2617C18.6016 32.2096 18.5563 32.1657 18.5034 32.133C17.939 31.8087 17.3943 31.4816 16.8102 31.1972C16.4095 30.9981 16.2458 31.1033 16.2458 31.5414C16.2458 32.773 16.2458 34.0046 16.2684 35.239C16.2679 35.2856 16.2773 35.3317 16.2957 35.3743C16.3142 35.417 16.3415 35.4552 16.3756 35.4865C17.1263 35.8932 17.8797 36.2971 18.7037 36.7409Z" fill="black"/>
        <path d="M39.0187 31.9508V31.5725C39.0187 30.2755 39.0413 28.9756 39.0187 27.6757C39.0111 27.5798 39.0345 27.4839 39.0853 27.4024C39.1362 27.3209 39.2118 27.2581 39.3009 27.2235C39.9048 26.9191 40.5003 26.5977 41.0985 26.282C41.186 26.2365 41.2791 26.2024 41.4061 26.1483C41.4202 26.2621 41.4371 26.3417 41.44 26.4328C41.44 27.7412 41.44 29.0496 41.44 30.358C41.4415 30.4109 41.432 30.4636 41.4121 30.5126C41.3921 30.5616 41.3622 30.6058 41.3243 30.6424C40.5962 31.0833 39.8456 31.4929 39.0187 31.9508Z" fill="#FAFBFC"/>
        <path d="M41.4286 39.4572C41.4427 39.6307 41.4568 39.7131 41.4568 39.7985C41.4568 41.0984 41.4568 42.3954 41.4568 43.6953C41.4637 43.7823 41.4424 43.8693 41.3961 43.9432C41.3498 44.017 41.281 44.0738 41.2 44.1049C40.5736 44.432 39.9584 44.779 39.3376 45.1175C39.2529 45.163 39.1626 45.1999 39.0356 45.2597C39.0356 45.1231 39.0159 45.0321 39.0159 44.9383C39.0159 43.6298 39.0328 42.3214 39.0328 41.013C39.0239 40.9256 39.0432 40.8377 39.088 40.7623C39.1327 40.687 39.2005 40.6282 39.2811 40.5949C39.981 40.2365 40.6695 39.8611 41.4286 39.4572Z" fill="#FAFBFC"/>
        <path d="M30.3274 49.9843C30.3274 49.2874 30.3274 48.6219 30.3274 47.9534C30.3274 47.285 30.2991 46.5597 30.302 45.86C30.3001 45.8005 30.3113 45.7414 30.3347 45.6869C30.3581 45.6323 30.3932 45.5836 30.4374 45.5442C31.1429 45.1403 31.8653 44.7564 32.5821 44.3695C32.6189 44.359 32.6567 44.3524 32.6949 44.3496C32.7112 44.4102 32.7225 44.472 32.7288 44.5345C32.7288 45.8827 32.7288 47.2281 32.7288 48.5735C32.7274 48.6287 32.7138 48.683 32.6889 48.7322C32.664 48.7814 32.6284 48.8244 32.5849 48.8579C31.8879 49.2362 31.1739 49.6003 30.4685 49.9644C30.4229 49.979 30.3752 49.9858 30.3274 49.9843Z" fill="#FAFBFC"/>
        <path d="M32.7568 30.9581C32.7568 31.746 32.7568 32.4884 32.7568 33.2336C32.7568 33.8907 32.737 34.5506 32.737 35.2247C32.7448 35.2965 32.7292 35.3689 32.6926 35.431C32.6559 35.4931 32.6002 35.5415 32.5339 35.5688C31.8792 35.9045 31.2301 36.2543 30.5811 36.5957C30.5047 36.6319 30.4265 36.6642 30.3469 36.6924C30.3469 36.6042 30.3271 36.5388 30.3271 36.4734C30.3271 35.2417 30.3074 34.013 30.2876 32.7757C30.2683 32.6143 30.3013 32.4509 30.3816 32.3099C30.462 32.169 30.5854 32.058 30.7335 31.9935C31.3317 31.709 31.913 31.3763 32.5 31.0662C32.5837 31.0258 32.6694 30.9897 32.7568 30.9581Z" fill="#FAFBFC"/>
        <path d="M7.60236 26.1455C7.8394 26.2621 8.05951 26.3617 8.26834 26.4726C8.76782 26.7371 9.27012 27.0017 9.75832 27.2833C9.81006 27.3133 9.85475 27.3543 9.88933 27.4034C9.92391 27.4525 9.94756 27.5085 9.95867 27.5677C9.98407 28.9643 9.99254 30.3609 10.0066 31.7575C10.002 31.8092 9.99352 31.8606 9.98125 31.9111C9.86837 31.8599 9.7696 31.8229 9.67648 31.7717C9.03872 31.4247 8.40097 31.0805 7.77168 30.7193C7.71971 30.6898 7.67498 30.6489 7.64079 30.5997C7.6066 30.5505 7.58382 30.4941 7.57414 30.4348C7.56003 29.0667 7.57414 27.7014 7.57414 26.3332C7.57834 26.27 7.58778 26.2072 7.60236 26.1455Z" fill="#FAFBFC"/>
        <path d="M18.7037 36.7408C17.8797 36.2971 17.1263 35.8875 16.3813 35.4808C16.3471 35.4495 16.3199 35.4112 16.3014 35.3686C16.2829 35.3259 16.2736 35.2798 16.274 35.2333C16.274 34.0045 16.2515 32.7729 16.2515 31.5356C16.2515 31.0976 16.4095 30.9923 16.8159 31.1914C17.3802 31.4759 17.9446 31.803 18.509 32.1272C18.562 32.16 18.6073 32.2039 18.6419 32.2559C18.6764 32.308 18.6995 32.3669 18.7094 32.4287C18.7065 33.8481 18.7037 35.2418 18.7037 36.7408Z" fill="#FAFBFC"/>
    </g>
    <path d="M85.429 42.404C85.719 43.1 85.864 43.6027 85.864 43.912C85.864 44.6467 85.2647 45.2653 84.066 45.768C83.4473 46.0387 82.9447 46.174 82.558 46.174C82.1907 46.174 81.8813 46.087 81.63 45.913C81.398 45.7197 81.224 45.5263 81.108 45.333C80.9147 44.9657 80.1607 43.216 78.846 40.084L77.947 40.142H74.293V43.419C74.293 43.8637 74.2737 44.202 74.235 44.434C74.2157 44.6467 74.1287 44.898 73.974 45.188C73.7033 45.71 72.9493 45.971 71.712 45.971C70.3587 45.971 69.566 45.6133 69.334 44.898C69.218 44.5693 69.16 44.0667 69.16 43.39V27.295C69.16 26.8503 69.1697 26.5217 69.189 26.309C69.2277 26.077 69.3243 25.816 69.479 25.526C69.7497 25.004 70.5037 24.743 71.741 24.743H78.005C79.7063 24.743 81.3593 25.3617 82.964 26.599C83.7373 27.1983 84.3753 28.0103 84.878 29.035C85.3807 30.0597 85.632 31.2003 85.632 32.457C85.632 34.6417 84.907 36.4397 83.457 37.851C83.8823 38.8757 84.5397 40.3933 85.429 42.404ZM74.293 35.009H78.005C78.5657 35.009 79.1263 34.7963 79.687 34.371C80.2477 33.9457 80.528 33.3077 80.528 32.457C80.528 31.6063 80.2477 30.9683 79.687 30.543C79.1263 30.0983 78.5463 29.876 77.947 29.876H74.293V35.009ZM99.9229 40.867H108.855C109.3 40.867 109.628 40.8863 109.841 40.925C110.073 40.9443 110.334 41.0313 110.624 41.186C111.146 41.4567 111.407 42.2107 111.407 43.448C111.407 44.8013 111.049 45.594 110.334 45.826C110.005 45.942 109.503 46 108.826 46H97.3419C95.9885 46 95.1959 45.6327 94.9639 44.898C94.8479 44.5887 94.7899 44.0957 94.7899 43.419V27.295C94.7899 26.309 94.9735 25.642 95.3409 25.294C95.7082 24.9267 96.4042 24.743 97.4289 24.743H108.855C109.3 24.743 109.628 24.7623 109.841 24.801C110.073 24.8203 110.334 24.9073 110.624 25.062C111.146 25.3327 111.407 26.0867 111.407 27.324C111.407 28.6773 111.049 29.47 110.334 29.702C110.005 29.818 109.503 29.876 108.826 29.876H99.9229V32.805H105.665C106.11 32.805 106.438 32.8243 106.651 32.863C106.883 32.8823 107.144 32.9693 107.434 33.124C107.956 33.3947 108.217 34.1487 108.217 35.386C108.217 36.7393 107.85 37.532 107.115 37.764C106.786 37.88 106.284 37.938 105.607 37.938H99.9229V40.867ZM134.335 25.642C134.528 25.294 134.809 25.062 135.176 24.946C135.543 24.83 135.998 24.772 136.539 24.772C137.1 24.772 137.544 24.8203 137.873 24.917C138.221 25.0137 138.472 25.1297 138.627 25.265C138.801 25.4003 138.927 25.6033 139.004 25.874C139.12 26.1833 139.178 26.6763 139.178 27.353V43.448C139.178 43.912 139.159 44.2503 139.12 44.463C139.101 44.6757 139.014 44.927 138.859 45.217C138.588 45.739 137.834 46 136.597 46C135.843 46 135.321 45.942 135.031 45.826C134.741 45.71 134.499 45.5263 134.306 45.275C129.956 39.475 127.095 35.6857 125.722 33.907V43.448C125.722 43.912 125.703 44.2503 125.664 44.463C125.645 44.6757 125.558 44.927 125.403 45.217C125.132 45.739 124.378 46 123.141 46C121.942 46 121.208 45.739 120.937 45.217C120.782 44.927 120.686 44.666 120.647 44.434C120.628 44.202 120.618 43.8637 120.618 43.419V27.237C120.618 26.5023 120.705 25.9707 120.879 25.642C121.072 25.294 121.353 25.062 121.72 24.946C122.087 24.83 122.561 24.772 123.141 24.772C123.721 24.772 124.175 24.83 124.504 24.946C124.852 25.0427 125.094 25.1587 125.229 25.294C125.306 25.352 125.529 25.6033 125.896 26.048C129.975 31.5967 132.701 35.2603 134.074 37.039V27.237C134.074 26.5023 134.161 25.9707 134.335 25.642ZM150.217 24.714H166.341C166.96 24.714 167.414 24.7913 167.704 24.946C167.994 25.0813 168.187 25.3037 168.284 25.613C168.381 25.9223 168.429 26.3283 168.429 26.831C168.429 27.3337 168.381 27.7397 168.284 28.049C168.187 28.339 168.023 28.542 167.791 28.658C167.443 28.832 166.95 28.919 166.312 28.919H160.773V43.506C160.773 43.9507 160.754 44.2793 160.715 44.492C160.696 44.7047 160.609 44.956 160.454 45.246C160.319 45.5167 160.067 45.71 159.7 45.826C159.333 45.942 158.849 46 158.25 46C157.651 46 157.167 45.942 156.8 45.826C156.452 45.71 156.201 45.5167 156.046 45.246C155.911 44.956 155.824 44.7047 155.785 44.492C155.766 44.26 155.756 43.9217 155.756 43.477V28.919H150.188C149.569 28.919 149.115 28.8513 148.825 28.716C148.535 28.5613 148.342 28.3293 148.245 28.02C148.148 27.7107 148.1 27.3047 148.1 26.802C148.1 26.2993 148.148 25.903 148.245 25.613C148.342 25.3037 148.506 25.091 148.738 24.975C149.086 24.801 149.579 24.714 150.217 24.714Z" fill="#090808"/>
    <path d="M197.622 31.16L205.662 40C206.569 41.0133 207.022 41.8667 207.022 42.56C207.022 43.2533 206.502 44.0667 205.462 45C204.449 45.9333 203.582 46.4 202.862 46.4C202.169 46.4 201.356 45.8667 200.422 44.8L192.822 36.08L185.222 44.8C184.262 45.8667 183.436 46.4 182.742 46.4C182.076 46.4 181.209 45.9333 180.142 45C179.102 44.04 178.582 43.2267 178.582 42.56C178.582 41.8933 179.049 41.04 179.982 40L188.022 31.16L179.982 22.32C179.049 21.3333 178.582 20.4933 178.582 19.8C178.582 19.1067 179.102 18.2933 180.142 17.36C181.182 16.4 182.049 15.92 182.742 15.92C183.462 15.92 184.289 16.4533 185.222 17.52L192.822 26.24L200.422 17.52C201.382 16.4533 202.196 15.92 202.862 15.92C203.556 15.92 204.422 16.3867 205.462 17.32C206.502 18.2533 207.022 19.08 207.022 19.8C207.022 20.52 206.569 21.36 205.662 22.32L197.622 31.16Z" fill="#00A3FF"/>
    <defs>
        <clipPath id="clip0">
            <rect width="49" height="63" fill="white"/>
        </clipPath>
    </defs>
</svg>
