<svg width="217" height="65" viewBox="0 0 217 65" fill="none" xmlns="http://www.w3.org/2000/svg">
<g clip-path="url(#clip0_379:1411)">
<path d="M50.9814 32.5484C50.9814 38.3943 50.9667 44.2372 50.9991 50.0801C51.0225 50.5287 50.9085 50.9737 50.6724 51.3559C50.4362 51.7381 50.0892 52.0394 49.6774 52.2195C48.5348 52.8211 47.407 53.4432 46.2732 54.0566C39.9252 57.4999 33.5771 60.9413 27.229 64.3808C27.0175 64.4952 26.7973 64.595 26.5858 64.7094C26.2583 64.8977 25.8871 64.9967 25.5093 64.9967C25.1315 64.9967 24.7604 64.8977 24.4329 64.7094C23.3696 64.1421 22.3074 63.5718 21.2461 62.9985L1.46761 52.2958C1.24744 52.1749 1.03372 52.0427 0.827319 51.8996C0.590991 51.7567 0.393281 51.5582 0.25146 51.3213C0.109639 51.0844 0.028022 50.8165 0.0137387 50.5409C0.0137387 50.2797 -0.0126953 50.0185 -0.0126953 49.7602C-0.00486301 38.3444 -0.000946866 26.9275 -0.000946866 15.5097C-0.000946866 15.0724 0.0431098 14.6293 0.0812923 14.195C0.105066 13.9469 0.191696 13.7089 0.333011 13.5035C0.474327 13.2982 0.665671 13.1321 0.888998 13.0211C2.18328 12.2953 3.48443 11.5743 4.79242 10.8583C11.2227 7.3797 17.6531 3.89624 24.0834 0.407899C25.0144 -0.0968646 25.875 -0.158493 26.8354 0.366813C31.5799 2.9591 36.3331 5.53574 41.0951 8.09673C43.9539 9.64233 46.8098 11.1918 49.6627 12.7452C49.9169 12.8888 50.1603 13.0507 50.3911 13.2295C50.5781 13.3792 50.7282 13.5697 50.8301 13.7864C50.9319 14.0031 50.9827 14.2403 50.9785 14.4796C50.9785 14.6997 50.9785 14.9198 50.9785 15.1399C50.9844 20.9428 50.9854 26.7456 50.9814 32.5484ZM5.45621 14.5149C5.57957 14.5912 5.65299 14.644 5.74992 14.688C12.2253 18.1998 18.7055 21.7165 25.1907 25.2381C25.2853 25.2988 25.3954 25.3311 25.5079 25.3311C25.6203 25.3311 25.7304 25.2988 25.8251 25.2381C32.1869 21.7811 38.5506 18.3289 44.9163 14.8817C45.116 14.7731 45.3128 14.6587 45.5566 14.5207L45.1983 14.3124L31.1559 6.67635C29.3702 5.71378 27.6079 4.76295 25.8163 3.81505C25.7196 3.75403 25.6075 3.72165 25.4932 3.72165C25.3788 3.72165 25.2668 3.75403 25.1701 3.81505C24.6003 4.12612 24.0188 4.40198 23.449 4.72773C17.6061 7.89913 11.7612 11.0754 5.9144 14.2566L5.45621 14.5149ZM27.3759 60.2957C27.931 60.0169 28.4244 59.7909 28.9002 59.5327C32.2466 57.7191 35.588 55.9015 38.9246 54.0801C41.6659 52.5853 44.3955 51.0906 47.1133 49.5959C47.2061 49.5569 47.2844 49.4897 47.3371 49.4039C47.3898 49.3181 47.4142 49.2179 47.407 49.1175C47.407 38.7229 47.407 28.3274 47.407 17.9308C47.407 17.8281 47.407 17.7224 47.3805 17.5434C46.7491 17.8574 46.1704 18.1304 45.6183 18.4238C42.0546 20.3509 38.4987 22.28 34.9507 24.211C32.739 25.4113 30.545 26.6262 28.3128 27.7972C27.6285 28.1552 27.3348 28.5749 27.3377 29.3525C27.371 39.4987 27.3788 49.6438 27.3612 59.788L27.3759 60.2957ZM3.75856 17.608L3.61464 17.6638V48.422C3.61464 48.6421 3.61464 48.8622 3.6352 49.0823C3.63876 49.2107 3.67765 49.3355 3.7476 49.4432C3.81755 49.5509 3.91585 49.6372 4.03171 49.6927C5.18305 50.2973 6.33147 50.9048 7.48281 51.5064C7.60065 51.5588 7.72125 51.6049 7.84408 51.6443V51.1953C7.84408 48.1961 7.84408 45.1939 7.87051 42.1917C7.86706 41.4822 7.90039 40.7731 7.97037 40.067C7.98935 39.9243 8.041 39.7879 8.12133 39.6684C8.20165 39.5489 8.30848 39.4495 8.43351 39.3779C8.55853 39.3064 8.69839 39.2646 8.8422 39.2559C8.98602 39.2471 9.12991 39.2716 9.2627 39.3275C9.59259 39.4343 9.91209 39.5708 10.2173 39.7354C12.9664 41.2409 15.7009 42.7669 18.4412 44.2636C18.7787 44.4126 19.0625 44.6611 19.2547 44.9758C19.4468 45.2905 19.538 45.6564 19.5162 46.0244C19.4897 49.9246 19.5162 53.8277 19.5162 57.7279C19.5065 57.8317 19.5296 57.9359 19.5823 58.0259C19.635 58.116 19.7146 58.1872 19.8099 58.2297C20.691 58.7139 21.5721 59.2157 22.4533 59.697C22.8087 59.8907 23.1817 60.0521 23.6281 60.2634C23.6604 59.5562 23.7133 58.9193 23.7133 58.2825C23.7133 48.7468 23.7133 39.2121 23.7133 29.6783C23.7133 28.2843 23.7544 28.3841 22.4797 27.6915C16.7798 24.5984 11.0739 21.5023 5.36222 18.4033C4.84235 18.1216 4.29311 17.878 3.75856 17.608ZM10.0528 41.9863C10.0528 42.1301 10.0264 42.2064 10.0264 42.2798C10.0264 45.7701 10.0352 49.2604 10.0528 52.7507C10.0465 52.8306 10.0651 52.9104 10.1062 52.9793C10.1472 53.0481 10.2086 53.1026 10.2819 53.1351C12.5317 54.3285 14.7835 55.5269 17.0372 56.7301C17.1252 56.7722 17.2154 56.8094 17.3075 56.8416C17.3075 56.7007 17.328 56.6009 17.328 56.5041C17.328 53.094 17.3398 49.6839 17.3633 46.2738C17.3639 46.1885 17.338 46.1051 17.2891 46.0351C17.2401 45.9652 17.1706 45.9122 17.0901 45.8835L12.6022 43.4037L10.0528 41.9863Z" fill="black"/>
<path d="M5.45117 14.5148L5.91524 14.2566C11.762 11.0754 17.6069 7.89519 23.4498 4.71597C24.0196 4.40196 24.6011 4.10849 25.1709 3.81502C25.2676 3.754 25.3797 3.72162 25.494 3.72162C25.6084 3.72162 25.7204 3.754 25.8171 3.81502C27.5794 4.77759 29.3798 5.72843 31.1568 6.691L45.1991 14.3035L45.5574 14.5119C45.3136 14.6498 45.1169 14.7643 44.9171 14.8729C38.5514 18.3201 32.1877 21.7723 25.8259 25.2293C25.7313 25.29 25.6212 25.3222 25.5087 25.3222C25.3962 25.3222 25.2861 25.29 25.1915 25.2293C18.7064 21.7136 12.2193 18.1998 5.7302 14.688C5.64796 14.644 5.5804 14.5911 5.45117 14.5148Z" fill="#4BC4F9"/>
<path d="M27.3702 60.2987V59.788C27.3702 49.6438 27.3623 39.4987 27.3467 29.3526C27.3467 28.5749 27.6404 28.1552 28.3218 27.7972C30.5481 26.6233 32.748 25.4113 34.9597 24.211C38.5038 22.2859 42.0489 20.3597 45.595 18.4326C46.153 18.1392 46.7316 17.8457 47.3572 17.5522C47.3572 17.7313 47.3837 17.8457 47.3837 17.9396C47.3837 28.3381 47.3837 38.7337 47.3837 49.1264C47.3909 49.2268 47.3665 49.3269 47.3138 49.4127C47.2611 49.4985 47.1828 49.5657 47.0899 49.6047C44.3584 51.0955 41.6289 52.5903 38.9013 54.0889C35.5628 55.9084 32.2213 57.7259 28.8769 59.5415C28.4187 59.7939 27.9253 60.0199 27.3702 60.2987ZM45.3805 28.4663H45.3336C45.3336 27.3775 45.3571 26.2858 45.3336 25.1971C45.3402 25.013 45.2977 24.8305 45.2105 24.6683C45.1233 24.506 44.9945 24.3698 44.8373 24.2737C44.6801 24.1775 44.5002 24.1249 44.3159 24.1211C44.1316 24.1173 43.9497 24.1625 43.7886 24.2521C42.1673 25.0855 40.5784 25.9689 38.9806 26.8434C38.8347 26.9207 38.7109 27.0336 38.6205 27.1717C38.5301 27.3097 38.4761 27.4684 38.4636 27.6328C38.4313 27.9909 38.4078 28.3489 38.4078 28.7099C38.4078 30.3396 38.4078 31.9693 38.4078 33.599C38.4078 33.9776 38.4284 34.3562 38.4636 34.7347C38.5341 35.4831 39.1098 35.847 39.8764 35.6151C40.1869 35.5191 40.4878 35.3943 40.7752 35.2424C41.6387 34.7905 42.4934 34.3239 43.3451 33.8543C43.8033 33.6049 44.2644 33.3554 44.705 33.0767C44.8708 32.9937 45.0138 32.8715 45.1213 32.7205C45.2288 32.5696 45.2977 32.3946 45.3218 32.2109C45.3424 31.9175 45.3805 31.6533 45.3835 31.3745C45.3864 30.4149 45.3805 29.4465 45.3805 28.4663ZM45.3805 42.2387H45.3365C45.3365 41.1705 45.357 40.0993 45.3365 39.0311C45.3159 38.0861 44.5317 37.6371 43.6447 38.0744C42.5286 38.629 41.436 39.2307 40.3405 39.8352C39.8617 40.0935 39.3976 40.3781 38.9395 40.6628C38.7926 40.7475 38.6707 40.8694 38.5861 41.0163C38.5016 41.1632 38.4573 41.3297 38.4578 41.4992C38.4372 42.673 38.4078 43.8792 38.4078 45.0677C38.4078 46.1976 38.4255 47.3274 38.4695 48.4543C38.4914 48.7149 38.594 48.9621 38.7632 49.1616C39.0804 49.546 39.5709 49.6223 40.1554 49.3171C41.7062 48.5101 43.2365 47.6649 44.7667 46.8226C44.9239 46.7451 45.0585 46.6286 45.1577 46.4842C45.257 46.3398 45.3175 46.1724 45.3336 45.998C45.3571 45.7192 45.3923 45.4404 45.3952 45.1616C45.3864 44.1873 45.3805 43.2189 45.3805 42.2592V42.2387ZM36.2197 47.4976C36.2197 46.6965 36.2197 45.8953 36.2197 45.0971C36.2301 44.6474 36.2124 44.1975 36.1668 43.75C36.0758 43.0193 35.4913 42.6936 34.7717 42.9812C34.2462 43.1921 33.7342 43.4352 33.2385 43.709C32.1165 44.3194 31.0063 44.9474 29.8932 45.5754C29.7423 45.6524 29.6158 45.7697 29.5277 45.9143C29.4395 46.0588 29.3932 46.2249 29.3938 46.3942C29.3938 46.8226 29.3469 47.2511 29.3439 47.6796C29.3439 49.3308 29.3439 50.9821 29.3439 52.6333C29.3454 52.9132 29.3661 53.1926 29.4056 53.4697C29.5172 54.3325 30.2485 54.7228 31.068 54.2973C32.61 53.4902 34.1255 52.6421 35.6499 51.8028C35.8356 51.7115 35.9903 51.5677 36.0947 51.3892C36.1992 51.2108 36.2488 51.0056 36.2373 50.7991C36.2138 49.7074 36.2197 48.6069 36.2197 47.5064V47.4976ZM36.2197 33.5667C36.2197 32.5161 36.2197 31.4685 36.2197 30.4178C36.2199 30.2278 36.2022 30.0382 36.1668 29.8514C36.1344 29.6447 36.0263 29.4573 35.8636 29.3255C35.7008 29.1938 35.4949 29.1271 35.2857 29.1383C35.0228 29.1298 34.7615 29.182 34.522 29.2909C32.9438 30.1361 31.3774 30.9999 29.8227 31.8822C29.622 32.0319 29.4797 32.2467 29.4203 32.4897C29.3584 32.7729 29.3347 33.0631 29.3498 33.3525C29.3498 34.905 29.3498 36.4545 29.3498 38.0069C29.3498 38.5762 29.3762 39.1455 29.4085 39.7149C29.4497 40.475 30.1076 40.8711 30.8771 40.5953C31.1048 40.5126 31.3265 40.4146 31.5409 40.3018C32.8215 39.6063 34.0932 38.8961 35.3797 38.2123C35.6617 38.0906 35.8984 37.8835 36.0565 37.6203C36.2145 37.3571 36.286 37.0509 36.2608 36.745C36.205 35.6973 36.2285 34.6291 36.2285 33.5755L36.2197 33.5667Z" fill="#4BC4F9"/>
<path d="M3.75915 17.608C4.29371 17.8721 4.84295 18.1157 5.36282 18.3974C11.0765 21.5004 16.7852 24.6043 22.4891 27.7091C23.7638 28.4017 23.7227 28.2961 23.7227 29.6959C23.7227 39.2316 23.7227 48.7664 23.7227 58.3001C23.7227 58.937 23.6698 59.5738 23.6375 60.281C23.194 60.0697 22.821 59.9083 22.4627 59.7146C21.5815 59.2304 20.7004 58.7286 19.8193 58.2473C19.724 58.2048 19.6444 58.1336 19.5917 58.0436C19.539 57.9535 19.5159 57.8493 19.5256 57.7455C19.5256 53.8453 19.4933 49.9422 19.5256 46.042C19.5474 45.674 19.4562 45.3081 19.2641 44.9934C19.0719 44.6787 18.7881 44.4302 18.4506 44.2812C15.6985 42.7845 12.9641 41.2585 10.2267 39.753C9.91942 39.5809 9.59693 39.4375 9.2633 39.3246C9.13051 39.2687 8.98661 39.2442 8.8428 39.2529C8.69899 39.2617 8.55913 39.3035 8.4341 39.375C8.30908 39.4466 8.20225 39.546 8.12192 39.6655C8.0416 39.785 7.98994 39.9214 7.97097 40.0641C7.90098 40.7701 7.86765 41.4793 7.87111 42.1888C7.85349 45.191 7.85349 48.1931 7.84467 51.1924V51.6502C7.72185 51.6108 7.60125 51.5647 7.48341 51.5122C6.33206 50.9106 5.18365 50.3032 4.0323 49.6986C3.91645 49.6431 3.81815 49.5568 3.7482 49.4491C3.67825 49.3414 3.63936 49.2165 3.63579 49.0882C3.62111 48.8681 3.61523 48.648 3.61523 48.4279V17.6696L3.75915 17.608ZM12.5235 31.2307C12.5235 30.0803 12.5235 28.9329 12.5235 27.7825C12.5268 27.5578 12.4654 27.3368 12.3467 27.1459C12.228 26.955 12.0569 26.8021 11.8538 26.7055C10.5498 25.9894 9.24861 25.2704 7.93866 24.5632C7.65765 24.4147 7.36247 24.2948 7.05753 24.2051C6.91195 24.1478 6.75484 24.1258 6.5991 24.1409C6.44335 24.156 6.2934 24.2077 6.16156 24.2919C6.02971 24.3761 5.91972 24.4904 5.84061 24.6252C5.7615 24.7601 5.71553 24.9118 5.70646 25.0679C5.69177 25.2558 5.68883 25.4465 5.69177 25.6373C5.69177 27.7972 5.69177 29.9571 5.70646 32.117C5.69908 32.302 5.74461 32.4853 5.83772 32.6454C5.93083 32.8055 6.06767 32.9357 6.2322 33.0209C6.84312 33.3642 7.44523 33.7252 8.06202 34.0539C9.05183 34.5821 10.0358 35.1192 11.052 35.5975C11.2038 35.6814 11.375 35.7239 11.5484 35.7208C11.7218 35.7177 11.8914 35.6692 12.0401 35.58C12.1888 35.4909 12.3115 35.3642 12.3958 35.2128C12.4802 35.0613 12.5232 34.8904 12.5206 34.7171C12.5323 33.5579 12.5235 32.3987 12.5235 31.2366V31.2307ZM14.741 33.6166C14.741 34.676 14.7645 35.7355 14.741 36.7949C14.7288 37.0806 14.8004 37.3636 14.9471 37.6091C15.0937 37.8547 15.3089 38.0521 15.5663 38.1771C15.6486 38.2241 15.7279 38.2739 15.8101 38.318C16.7647 38.8433 17.7192 39.3686 18.6767 39.8851C19.1173 40.1257 19.5579 40.3634 20.0249 40.5659C20.8473 40.9328 21.561 40.4984 21.5727 39.6474C21.5727 39.307 21.5962 38.9665 21.5962 38.629C21.5962 36.6892 21.5727 34.7494 21.5815 32.8096C21.5858 32.5496 21.512 32.2943 21.3696 32.0767C21.2272 31.8591 21.0227 31.6891 20.7827 31.5888C19.7488 31.0341 18.7267 30.4619 17.6957 29.9072C17.2779 29.6652 16.8453 29.4496 16.4005 29.2616C15.4312 28.8918 14.7733 29.3085 14.7528 30.2916C14.7263 31.401 14.741 32.5103 14.741 33.6225V33.6166Z" fill="#4BC4F9"/>
<path d="M10.0528 41.9922L12.6022 43.4037L17.0754 45.8923C17.1559 45.921 17.2254 45.974 17.2744 46.0439C17.3233 46.1139 17.3493 46.1973 17.3486 46.2826C17.3349 49.6927 17.328 53.1028 17.328 56.5129C17.328 56.6098 17.328 56.7095 17.3075 56.8504C17.2154 56.8182 17.1252 56.781 17.0373 56.7389C14.7894 55.5415 12.5376 54.3432 10.2819 53.1439C10.2086 53.1114 10.1472 53.0569 10.1062 52.9881C10.0652 52.9192 10.0465 52.8393 10.0528 52.7595C10.0528 49.2692 10.044 45.7789 10.0264 42.2886C10.0264 42.2123 10.0381 42.136 10.0528 41.9922Z" fill="#FAFBFC"/>
<path d="M45.3809 28.4663C45.3809 29.4377 45.3809 30.4061 45.3809 31.3745C45.3809 31.668 45.3398 31.9321 45.3192 32.2109C45.2951 32.3946 45.2263 32.5696 45.1187 32.7205C45.0112 32.8715 44.8683 32.9937 44.7024 33.0766C44.2619 33.3701 43.8008 33.6049 43.3426 33.8543C42.4908 34.3239 41.6361 34.7905 40.7726 35.2424C40.4853 35.3943 40.1844 35.5191 39.8738 35.6151C39.1072 35.847 38.5316 35.4831 38.4611 34.7347C38.4258 34.3562 38.4053 33.9776 38.4053 33.599C38.4053 31.9673 38.4053 30.3376 38.4053 28.7099C38.4053 28.3489 38.4288 27.9909 38.4611 27.6328C38.4736 27.4684 38.5275 27.3097 38.6179 27.1717C38.7083 27.0336 38.8322 26.9207 38.978 26.8434C40.5758 25.963 42.1648 25.0826 43.7861 24.2521C43.9471 24.1625 44.1291 24.1173 44.3133 24.1211C44.4976 24.1249 44.6776 24.1775 44.8348 24.2737C44.992 24.3698 45.1208 24.506 45.208 24.6683C45.2951 24.8305 45.3376 25.013 45.331 25.1971C45.3604 26.2858 45.331 27.3775 45.331 28.4663H45.3809ZM40.611 32.9563C41.4716 32.4838 42.2529 32.0759 43.0224 31.621C43.0619 31.5833 43.0931 31.5376 43.1138 31.4871C43.1345 31.4365 43.1444 31.3822 43.1428 31.3276C43.1428 29.9776 43.1428 28.6277 43.1428 27.2777C43.1428 27.1926 43.1223 27.1105 43.1076 26.9843C42.9754 27.04 42.8785 27.0752 42.7874 27.1222C42.1648 27.4479 41.545 27.7796 40.9165 28.0936C40.8237 28.1293 40.745 28.1941 40.6921 28.2782C40.6392 28.3622 40.6149 28.4612 40.6228 28.5602C40.6228 29.9013 40.6228 31.2425 40.6228 32.5807L40.611 32.9563Z" fill="black"/>
<path d="M45.3809 42.2592C45.3809 43.2306 45.3809 44.199 45.3809 45.1704C45.3809 45.4639 45.3428 45.728 45.3193 46.0068C45.3032 46.1812 45.2427 46.3486 45.1435 46.493C45.0442 46.6373 44.9096 46.7539 44.7524 46.8314C43.2222 47.6737 41.6919 48.5189 40.1411 49.3259C39.5537 49.6194 39.0662 49.5548 38.7489 49.1704C38.5798 48.9709 38.4771 48.7236 38.4552 48.4631C38.4112 47.3362 38.3936 46.2063 38.3936 45.0765C38.3936 43.8879 38.4229 42.6965 38.4435 41.5079C38.443 41.3385 38.4873 41.1719 38.5719 41.0251C38.6564 40.8782 38.7783 40.7563 38.9252 40.6715C39.3834 40.3781 39.8474 40.1022 40.3262 39.844C41.4217 39.257 42.5143 38.6496 43.6304 38.0832C44.5116 37.6459 45.3016 38.0832 45.3222 39.0399C45.3486 40.1081 45.3222 41.1792 45.3222 42.2475L45.3809 42.2592ZM43.1194 40.7214C42.3293 41.1382 41.6126 41.5255 40.8872 41.8953C40.8032 41.9297 40.7327 41.9903 40.6861 42.068C40.6395 42.1458 40.6194 42.2366 40.6287 42.3267C40.6287 43.6767 40.6287 45.0266 40.6111 46.3765C40.6111 46.4734 40.6111 46.5673 40.6316 46.7082C40.7638 46.6465 40.8578 46.6084 40.9459 46.5614C41.5921 46.2122 42.2324 45.8542 42.8844 45.5167C42.9687 45.4846 43.0403 45.4261 43.0885 45.3499C43.1367 45.2737 43.1589 45.1839 43.1517 45.0941C43.1517 43.753 43.1517 42.4147 43.1517 41.0736C43.1487 40.9738 43.1341 40.8887 43.1194 40.7097V40.7214Z" fill="black"/>
<path d="M36.2196 47.5064C36.2196 48.6069 36.2196 49.7074 36.2196 50.8079C36.231 51.0143 36.1814 51.2196 36.077 51.398C35.9725 51.5765 35.8178 51.7203 35.6321 51.8116C34.1078 52.6509 32.5922 53.499 31.0503 54.306C30.2308 54.7316 29.4995 54.3412 29.3879 53.4785C29.3483 53.2014 29.3277 52.9219 29.3262 52.6421C29.3262 50.9908 29.3262 49.3396 29.3262 47.6884C29.3262 47.2599 29.3644 46.8314 29.3761 46.403C29.3755 46.2337 29.4218 46.0676 29.5099 45.9231C29.5981 45.7785 29.7246 45.6612 29.8754 45.5842C30.9886 44.9562 32.0988 44.3282 33.2208 43.7177C33.7164 43.4439 34.2284 43.2009 34.754 42.9899C35.4735 42.6965 36.058 43.0281 36.1491 43.7588C36.1947 44.2063 36.2123 44.6562 36.2019 45.1058C36.2019 45.9041 36.2019 46.7052 36.2019 47.5064H36.2196ZM31.5643 51.5709C31.613 51.5721 31.6617 51.5651 31.7082 51.5504C32.4454 51.1747 33.1767 50.7991 33.911 50.4088C33.9563 50.3742 33.9933 50.3298 34.0192 50.279C34.0452 50.2283 34.0594 50.1723 34.0608 50.1153C34.0608 48.7272 34.0608 47.3391 34.0608 45.9481C34.0542 45.8837 34.0424 45.8199 34.0255 45.7573C33.9858 45.7602 33.9464 45.7671 33.9081 45.7779C33.162 46.177 32.4101 46.5732 31.6759 46.9899C31.6298 47.0305 31.5933 47.0807 31.5689 47.137C31.5446 47.1933 31.5329 47.2543 31.5349 47.3156C31.5349 48.0376 31.5554 48.7566 31.5613 49.4756C31.5672 50.1946 31.5643 50.8519 31.5643 51.5709Z" fill="black"/>
<path d="M36.2289 33.5755C36.2289 34.6379 36.2054 35.6973 36.2289 36.7596C36.2541 37.0656 36.1827 37.3717 36.0246 37.6349C35.8665 37.8982 35.6298 38.1052 35.3478 38.227C34.0613 38.9108 32.7896 39.6209 31.509 40.3165C31.2946 40.4292 31.0729 40.5273 30.8452 40.6099C30.0874 40.8858 29.4295 40.4896 29.3766 39.7295C29.3443 39.1602 29.3208 38.5909 29.3179 38.0216C29.3179 36.4691 29.3179 34.9196 29.3179 33.3672C29.3028 33.0777 29.3265 32.7875 29.3884 32.5044C29.4478 32.2613 29.5901 32.0465 29.7908 31.8969C31.3435 31.0106 32.91 30.1469 34.4902 29.3056C34.7296 29.1967 34.9909 29.1445 35.2538 29.153C35.463 29.1417 35.6689 29.2084 35.8317 29.3402C35.9944 29.4719 36.1025 29.6593 36.1349 29.8661C36.1703 30.0528 36.188 30.2425 36.1878 30.4325C36.2319 31.4772 36.2289 32.5249 36.2289 33.5755ZM34.0936 31.9409C34.0029 31.9697 33.9137 32.003 33.8264 32.0407C33.2154 32.3606 32.6104 32.6951 31.9877 32.9974C31.8336 33.0639 31.7052 33.1785 31.6215 33.3239C31.5379 33.4693 31.5036 33.6379 31.5237 33.8044C31.5442 35.0751 31.5501 36.3429 31.5648 37.6195C31.5648 37.687 31.5648 37.7545 31.5854 37.8455C31.6683 37.8164 31.7496 37.7831 31.8291 37.7457C32.5047 37.3935 33.1802 37.0326 33.8616 36.6863C33.9307 36.6581 33.9886 36.6081 34.0268 36.5441C34.0649 36.48 34.0812 36.4053 34.0731 36.3312C34.0731 35.6503 34.0731 34.9695 34.0936 34.2769C34.0966 33.5198 34.0936 32.7538 34.0936 31.9409Z" fill="black"/>
<path d="M12.5231 31.2366C12.5231 32.4104 12.5231 33.5579 12.5231 34.7171C12.5257 34.8904 12.4827 35.0613 12.3984 35.2127C12.3141 35.3642 12.1914 35.4908 12.0427 35.58C11.8939 35.6692 11.7244 35.7177 11.551 35.7208C11.3775 35.7239 11.2064 35.6813 11.0546 35.5975C10.0383 35.1191 9.05439 34.5821 8.06458 34.0539C7.44779 33.7252 6.84568 33.3642 6.23476 33.0209C6.07023 32.9357 5.9334 32.8054 5.84029 32.6453C5.74718 32.4853 5.70164 32.302 5.70902 32.117C5.70902 29.9571 5.70902 27.7971 5.69434 25.6372C5.69434 25.4465 5.69434 25.2557 5.70902 25.0679C5.71809 24.9118 5.76406 24.7601 5.84317 24.6252C5.92228 24.4903 6.03227 24.3761 6.16412 24.2919C6.29597 24.2077 6.44592 24.1559 6.60166 24.1408C6.75741 24.1258 6.91451 24.1478 7.06009 24.2051C7.36503 24.2948 7.66021 24.4147 7.94123 24.5631C9.25118 25.2704 10.5523 25.9894 11.8564 26.7054C12.0612 26.8002 12.2344 26.9518 12.3553 27.1423C12.4761 27.3328 12.5395 27.554 12.5378 27.7795C12.5378 28.9299 12.5378 30.0774 12.5378 31.2278L12.5231 31.2366ZM7.91185 26.9754C7.89387 27.0379 7.8811 27.1017 7.87367 27.1662C7.87367 28.5778 7.87367 29.9864 7.87367 31.398C7.88375 31.4592 7.90745 31.5173 7.94304 31.5681C7.97863 31.6189 8.02518 31.6611 8.07927 31.6915C8.73425 32.0642 9.39803 32.4193 10.0618 32.7773C10.1587 32.8301 10.2615 32.8683 10.379 32.9211C10.3918 32.869 10.4006 32.816 10.4055 32.7626C10.3908 31.3217 10.382 29.8808 10.3555 28.4398C10.344 28.3788 10.3193 28.321 10.2834 28.2703C10.2474 28.2197 10.2009 28.1774 10.147 28.1464C9.63888 27.8529 9.11607 27.5829 8.5962 27.31C8.38767 27.1985 8.15857 27.0958 7.91185 26.9754Z" fill="black"/>
<path d="M14.7412 33.6225C14.7412 32.5102 14.7412 31.4009 14.7412 30.2916C14.7618 29.3085 15.4197 28.8918 16.3889 29.2616C16.8338 29.4496 17.2664 29.6652 17.6842 29.9072C18.7151 30.4618 19.7402 31.0341 20.7711 31.5888C21.0112 31.6891 21.2157 31.8591 21.3581 32.0767C21.5005 32.2943 21.5743 32.5496 21.57 32.8096C21.57 34.7494 21.57 36.6892 21.5847 38.629C21.5847 38.9665 21.5641 39.3069 21.5612 39.6474C21.5612 40.4984 20.8357 40.9327 20.0133 40.5659C19.5522 40.3634 19.1058 40.1257 18.6652 39.8851C17.7077 39.3686 16.7532 38.8433 15.7986 38.318C15.7164 38.2739 15.637 38.224 15.5548 38.1771C15.2967 38.0538 15.0803 37.8579 14.9321 37.6133C14.7839 37.3688 14.7104 37.0864 14.7207 36.8007C14.753 35.7413 14.7207 34.6819 14.7207 33.6225H14.7412ZM19.467 37.9071C19.467 36.3605 19.467 34.9137 19.467 33.464C19.4567 33.4002 19.4328 33.3394 19.3968 33.2857C19.3608 33.232 19.3136 33.1867 19.2585 33.1529C18.6711 32.8184 18.1042 32.4809 17.4962 32.1874C17.0792 31.982 16.9088 32.0906 16.9088 32.5425C16.9088 33.8132 16.9088 35.084 16.9323 36.3576C16.9318 36.4056 16.9415 36.4532 16.9608 36.4972C16.98 36.5412 17.0084 36.5806 17.0439 36.6129C17.8252 37.0326 18.6094 37.4493 19.467 37.9071Z" fill="black"/>
<path d="M40.6108 32.9651V32.5748C40.6108 31.2366 40.6343 29.8955 40.6108 28.5543C40.6029 28.4553 40.6272 28.3564 40.6802 28.2723C40.7331 28.1882 40.8118 28.1234 40.9046 28.0877C41.5331 27.7737 42.1528 27.4421 42.7755 27.1163C42.8665 27.0694 42.9635 27.0342 43.0956 26.9784C43.1103 27.0958 43.1279 27.178 43.1309 27.2719C43.1309 28.6218 43.1309 29.9718 43.1309 31.3217C43.1325 31.3763 43.1226 31.4307 43.1019 31.4812C43.0811 31.5318 43.05 31.5774 43.0105 31.6152C42.2527 32.07 41.4714 32.4926 40.6108 32.9651Z" fill="#FAFBFC"/>
<path d="M43.1196 40.7097C43.1343 40.8887 43.149 40.9738 43.149 41.0619C43.149 42.403 43.149 43.7412 43.149 45.0824C43.1562 45.1722 43.134 45.262 43.0858 45.3382C43.0376 45.4144 42.966 45.4729 42.8817 45.505C42.2297 45.8425 41.5894 46.2005 40.9432 46.5497C40.8551 46.5967 40.7611 46.6348 40.629 46.6964C40.629 46.5556 40.6084 46.4617 40.6084 46.3648C40.6084 45.0149 40.626 43.6649 40.626 42.315C40.6167 42.2248 40.6368 42.1341 40.6834 42.0563C40.73 41.9786 40.8006 41.918 40.8845 41.8836C41.6129 41.5138 42.3295 41.1264 43.1196 40.7097Z" fill="#FAFBFC"/>
<path d="M31.5647 51.5709C31.5647 50.8519 31.5647 50.1652 31.5647 49.4756C31.5647 48.7859 31.5354 48.0376 31.5383 47.3157C31.5363 47.2543 31.548 47.1934 31.5723 47.137C31.5967 47.0807 31.6332 47.0305 31.6793 46.9899C32.4136 46.5732 33.1655 46.177 33.9115 45.7779C33.9498 45.7671 33.9892 45.7602 34.029 45.7574C34.0459 45.8199 34.0576 45.8837 34.0642 45.9481C34.0642 47.3391 34.0642 48.7272 34.0642 50.1153C34.0628 50.1723 34.0486 50.2283 34.0226 50.2791C33.9967 50.3298 33.9597 50.3742 33.9144 50.4088C33.189 50.7991 32.4459 51.1748 31.7116 51.5504C31.6641 51.5655 31.6145 51.5724 31.5647 51.5709Z" fill="#FAFBFC"/>
<path d="M34.0931 31.9409C34.0931 32.7538 34.0931 33.5198 34.0931 34.2887C34.0931 34.9666 34.0726 35.6474 34.0726 36.3429C34.0807 36.417 34.0644 36.4917 34.0263 36.5558C33.9881 36.6199 33.9302 36.6698 33.8611 36.698C33.1797 37.0443 32.5042 37.4053 31.8286 37.7574C31.7491 37.7948 31.6678 37.8281 31.5849 37.8572C31.5849 37.7662 31.5643 37.6987 31.5643 37.6312C31.5643 36.3605 31.5437 35.0928 31.5232 33.8162C31.5031 33.6496 31.5374 33.4811 31.621 33.3356C31.7047 33.1902 31.8331 33.0757 31.9872 33.0091C32.6099 32.7157 33.215 32.3723 33.8259 32.0524C33.913 32.0107 34.0022 31.9735 34.0931 31.9409Z" fill="#FAFBFC"/>
<path d="M7.91187 26.9755C8.15859 27.0958 8.38769 27.1985 8.60503 27.313C9.1249 27.5859 9.64771 27.8588 10.1558 28.1493C10.2097 28.1804 10.2562 28.2227 10.2922 28.2733C10.3282 28.3239 10.3528 28.3818 10.3644 28.4428C10.3908 29.8837 10.3996 31.3246 10.4143 32.7656C10.4095 32.819 10.4006 32.872 10.3879 32.924C10.2704 32.8712 10.1676 32.8331 10.0707 32.7802C9.40686 32.4222 8.74308 32.0671 8.0881 31.6944C8.03402 31.664 7.98746 31.6219 7.95187 31.5711C7.91628 31.5203 7.89258 31.4621 7.8825 31.4009C7.86782 29.9894 7.8825 28.5807 7.8825 27.1692C7.88688 27.1039 7.8967 27.0391 7.91187 26.9755Z" fill="#FAFBFC"/>
<path d="M19.4664 37.9071C18.6088 37.4493 17.8246 37.0267 17.0492 36.6071C17.0136 36.5748 16.9853 36.5353 16.966 36.4913C16.9468 36.4473 16.9371 36.3998 16.9376 36.3517C16.9376 35.084 16.9141 33.8133 16.9141 32.5367C16.9141 32.0847 17.0785 31.9761 17.5015 32.1816C18.0889 32.475 18.6763 32.8125 19.2638 33.1471C19.3189 33.1809 19.366 33.2262 19.402 33.2799C19.438 33.3336 19.462 33.3944 19.4723 33.4582C19.4694 34.9226 19.4664 36.3605 19.4664 37.9071Z" fill="#FAFBFC"/>
</g>
<path d="M93.03 42.28C93.33 43 93.48 43.52 93.48 43.84C93.48 44.6 92.86 45.24 91.62 45.76C90.98 46.04 90.46 46.18 90.06 46.18C89.68 46.18 89.36 46.09 89.1 45.91C88.86 45.71 88.68 45.51 88.56 45.31C88.36 44.93 87.58 43.12 86.22 39.88L85.29 39.94H81.51V43.33C81.51 43.79 81.49 44.14 81.45 44.38C81.43 44.6 81.34 44.86 81.18 45.16C80.9 45.7 80.12 45.97 78.84 45.97C77.44 45.97 76.62 45.6 76.38 44.86C76.26 44.52 76.2 44 76.2 43.3V26.65C76.2 26.19 76.21 25.85 76.23 25.63C76.27 25.39 76.37 25.12 76.53 24.82C76.81 24.28 77.59 24.01 78.87 24.01H85.35C87.11 24.01 88.82 24.65 90.48 25.93C91.28 26.55 91.94 27.39 92.46 28.45C92.98 29.51 93.24 30.69 93.24 31.99C93.24 34.25 92.49 36.11 90.99 37.57C91.43 38.63 92.11 40.2 93.03 42.28ZM81.51 34.63H85.35C85.93 34.63 86.51 34.41 87.09 33.97C87.67 33.53 87.96 32.87 87.96 31.99C87.96 31.11 87.67 30.45 87.09 30.01C86.51 29.55 85.91 29.32 85.29 29.32H81.51V34.63ZM108.024 40.69H117.264C117.724 40.69 118.064 40.71 118.284 40.75C118.524 40.77 118.794 40.86 119.094 41.02C119.634 41.3 119.904 42.08 119.904 43.36C119.904 44.76 119.534 45.58 118.794 45.82C118.454 45.94 117.934 46 117.234 46H105.354C103.954 46 103.134 45.62 102.894 44.86C102.774 44.54 102.714 44.03 102.714 43.33V26.65C102.714 25.63 102.904 24.94 103.284 24.58C103.664 24.2 104.384 24.01 105.444 24.01H117.264C117.724 24.01 118.064 24.03 118.284 24.07C118.524 24.09 118.794 24.18 119.094 24.34C119.634 24.62 119.904 25.4 119.904 26.68C119.904 28.08 119.534 28.9 118.794 29.14C118.454 29.26 117.934 29.32 117.234 29.32H108.024V32.35H113.964C114.424 32.35 114.764 32.37 114.984 32.41C115.224 32.43 115.494 32.52 115.794 32.68C116.334 32.96 116.604 33.74 116.604 35.02C116.604 36.42 116.224 37.24 115.464 37.48C115.124 37.6 114.604 37.66 113.904 37.66H108.024V40.69ZM143.622 24.94C143.822 24.58 144.112 24.34 144.492 24.22C144.872 24.1 145.342 24.04 145.902 24.04C146.482 24.04 146.942 24.09 147.282 24.19C147.642 24.29 147.902 24.41 148.062 24.55C148.242 24.69 148.372 24.9 148.452 25.18C148.572 25.5 148.632 26.01 148.632 26.71V43.36C148.632 43.84 148.612 44.19 148.572 44.41C148.552 44.63 148.462 44.89 148.302 45.19C148.022 45.73 147.242 46 145.962 46C145.182 46 144.642 45.94 144.342 45.82C144.042 45.7 143.792 45.51 143.592 45.25C139.092 39.25 136.132 35.33 134.712 33.49V43.36C134.712 43.84 134.692 44.19 134.652 44.41C134.632 44.63 134.542 44.89 134.382 45.19C134.102 45.73 133.322 46 132.042 46C130.802 46 130.042 45.73 129.762 45.19C129.602 44.89 129.502 44.62 129.462 44.38C129.442 44.14 129.432 43.79 129.432 43.33V26.59C129.432 25.83 129.522 25.28 129.702 24.94C129.902 24.58 130.192 24.34 130.572 24.22C130.952 24.1 131.442 24.04 132.042 24.04C132.642 24.04 133.112 24.1 133.452 24.22C133.812 24.32 134.062 24.44 134.202 24.58C134.282 24.64 134.512 24.9 134.892 25.36C139.112 31.1 141.932 34.89 143.352 36.73V26.59C143.352 25.83 143.442 25.28 143.622 24.94ZM160.052 23.98H176.732C177.372 23.98 177.842 24.06 178.142 24.22C178.442 24.36 178.642 24.59 178.742 24.91C178.842 25.23 178.892 25.65 178.892 26.17C178.892 26.69 178.842 27.11 178.742 27.43C178.642 27.73 178.472 27.94 178.232 28.06C177.872 28.24 177.362 28.33 176.702 28.33H170.972V43.42C170.972 43.88 170.952 44.22 170.912 44.44C170.892 44.66 170.802 44.92 170.642 45.22C170.502 45.5 170.242 45.7 169.862 45.82C169.482 45.94 168.982 46 168.362 46C167.742 46 167.242 45.94 166.862 45.82C166.502 45.7 166.242 45.5 166.082 45.22C165.942 44.92 165.852 44.66 165.812 44.44C165.792 44.2 165.782 43.85 165.782 43.39V28.33H160.022C159.382 28.33 158.912 28.26 158.612 28.12C158.312 27.96 158.112 27.72 158.012 27.4C157.912 27.08 157.862 26.66 157.862 26.14C157.862 25.62 157.912 25.21 158.012 24.91C158.112 24.59 158.282 24.37 158.522 24.25C158.882 24.07 159.392 23.98 160.052 23.98Z" fill="white"/>
<path d="M206.583 31.16L214.623 40C215.53 41.0133 215.983 41.8667 215.983 42.56C215.983 43.2533 215.463 44.0667 214.423 45C213.41 45.9333 212.543 46.4 211.823 46.4C211.13 46.4 210.317 45.8667 209.383 44.8L201.783 36.08L194.183 44.8C193.223 45.8667 192.397 46.4 191.703 46.4C191.037 46.4 190.17 45.9333 189.103 45C188.063 44.04 187.543 43.2267 187.543 42.56C187.543 41.8933 188.01 41.04 188.943 40L196.983 31.16L188.943 22.32C188.01 21.3333 187.543 20.4933 187.543 19.8C187.543 19.1067 188.063 18.2933 189.103 17.36C190.143 16.4 191.01 15.92 191.703 15.92C192.423 15.92 193.25 16.4533 194.183 17.52L201.783 26.24L209.383 17.52C210.343 16.4533 211.157 15.92 211.823 15.92C212.517 15.92 213.383 16.3867 214.423 17.32C215.463 18.2533 215.983 19.08 215.983 19.8C215.983 20.52 215.53 21.36 214.623 22.32L206.583 31.16Z" fill="#49BEFF"/>
<defs>
<clipPath id="clip0_379:1411">
<rect width="51" height="65" fill="white"/>
</clipPath>
</defs>
</svg>