<svg id="10015.io" viewBox="0 0 1200 630" xmlns="http://www.w3.org/2000/svg"><defs><pattern id="pattern" x="0" y="0" width="79" height="79" patternUnits="userSpaceOnUse" patternTransform="translate(12, 12) rotate(62) skewX(0)"><svg width="67" height="67" viewBox="0 0 100 100"><g fill="#d4b036" opacity="0.45"><path d="M97.6471 38.6139L89.9612 36.9431C89.2929 34.8969 88.4651 32.901 87.4878 30.9784L91.7427 24.3599C92.5026 23.1773 92.3355 21.6248 91.3422 20.6314L79.3686 8.65784C78.3752 7.66449 76.8227 7.49741 75.6401 8.25729L69.0216 12.5122C67.099 11.5349 65.1031 10.7071 63.0569 10.0388L61.3861 2.35291C61.0878 0.979614 59.8717 0 58.4663 0H41.5337C40.1283 0 38.9122 0.979614 38.6139 2.35291L36.9431 10.0388C34.8969 10.7071 32.901 11.5349 30.9784 12.5122L24.3599 8.25729C23.1773 7.49741 21.6248 7.66449 20.6314 8.65784L8.65784 20.6314C7.66449 21.6248 7.49741 23.1773 8.25729 24.3599L12.5122 30.9784C11.5349 32.901 10.7071 34.8969 10.0388 36.9431L2.35291 38.6139C0.979614 38.913 0 40.1283 0 41.5337V58.4663C0 59.8717 0.979614 61.087 2.35291 61.3861L10.0388 63.0569C10.7071 65.1031 11.5349 67.099 12.5122 69.0216L8.25729 75.6401C7.49741 76.8227 7.66449 78.3752 8.65784 79.3686L20.6314 91.3422C21.6248 92.3355 23.1773 92.5026 24.3599 91.7427L30.9784 87.4878C32.901 88.4651 34.8969 89.2929 36.9431 89.9612L38.6139 97.6471C38.9122 99.0204 40.1283 100 41.5337 100H58.4663C59.8717 100 61.0878 99.0204 61.3861 97.6471L63.0569 89.9612C65.1031 89.2929 67.099 88.4651 69.0216 87.4878L75.6401 91.7427C76.8227 92.5026 78.3752 92.3363 79.3686 91.3422L91.3422 79.3686C92.3355 78.3752 92.5026 76.8227 91.7427 75.6401L87.4878 69.0216C88.4651 67.099 89.2929 65.1031 89.9612 63.0569L97.6471 61.3861C99.0204 61.087 100 59.8717 100 58.4663V41.5337C100 40.1283 99.0204 38.913 97.6471 38.6139V38.6139ZM67.9283 50C67.9283 59.8854 59.8854 67.9283 50 67.9283C40.1146 67.9283 32.0717 59.8854 32.0717 50C32.0717 40.1146 40.1146 32.0717 50 32.0717C59.8854 32.0717 67.9283 40.1146 67.9283 50V50Z"></path></g></svg></pattern></defs><rect x="0" y="0" width="100%" height="100%" fill="#fadd4d"></rect><rect x="0" y="0" width="100%" height="100%" fill="url(#pattern)"></rect></svg>