<svg id="10015.io" viewBox="0 0 157 157" xmlns="http://www.w3.org/2000/svg"><defs><pattern id="pattern" x="0" y="0" width="125" height="125" patternUnits="userSpaceOnUse" patternTransform="translate(32, 32) rotate(0) skewX(0)"><svg width="93" height="93" viewBox="0 0 100 100"><g fill="#43bcf7" opacity="0.75"><path d="M96.0938 0C93.39 0 6.20469 0 3.90625 0C1.74883 0 0 1.74883 0 3.90625V96.0938C0 98.2512 1.74883 100 3.90625 100H96.0938C98.2512 100 100 98.2512 100 96.0938C100 93.39 100 6.20469 100 3.90625C100 1.74883 98.2512 0 96.0938 0ZM7.8125 7.8125H23.0469V46.0938H7.8125V7.8125ZM46.0938 92.1875H7.8125V76.9531H46.0938V92.1875ZM46.0938 69.1406H7.8125V53.9062H46.0938V69.1406ZM46.0938 46.0938H30.8594V7.8125H46.0938V46.0938ZM69.1406 92.1875H53.9062C53.9062 90.0607 53.9062 56.033 53.9062 53.9062H69.1406V92.1875ZM92.1875 92.1875H76.9531V53.9062H92.1875V92.1875ZM92.1875 46.0938C90.0607 46.0938 56.033 46.0938 53.9062 46.0938V30.8594H92.1875V46.0938ZM92.1875 23.0469H53.9062V7.8125H92.1875V23.0469Z"></path></g></svg></pattern></defs><rect x="0" y="0" width="100%" height="100%" fill="#3992ce"></rect><rect x="0" y="0" width="100%" height="100%" fill="url(#pattern)"></rect></svg>