<svg width="107" height="165" viewBox="0 0 107 165" fill="none" xmlns="http://www.w3.org/2000/svg">
    <g clip-path="url(#clip0_381:27)">
        <path d="M106.962 68.1014C106.962 80.3328 106.931 92.558 106.999 104.783C107.048 105.722 106.809 106.653 106.314 107.453C105.818 108.252 105.09 108.883 104.226 109.259C101.829 110.518 99.4629 111.82 97.0843 113.103C83.7658 120.308 70.4473 127.508 57.1288 134.705C56.6851 134.944 56.2229 135.153 55.7793 135.392C55.0922 135.786 54.3135 135.993 53.5208 135.993C52.7282 135.993 51.9495 135.786 51.2624 135.392C49.0317 134.205 46.803 133.012 44.5764 131.812L3.08035 109.419C2.61842 109.166 2.17002 108.889 1.73699 108.59C1.24117 108.291 0.826364 107.876 0.528818 107.38C0.231272 106.885 0.0600358 106.324 0.030069 105.747C0.030069 105.201 -0.0253906 104.654 -0.0253906 104.114C-0.00895816 80.2284 -0.000741923 56.3408 -0.000741923 32.4512C-0.000741923 31.5363 0.0916907 30.6092 0.171799 29.7004C0.221677 29.1813 0.40343 28.6834 0.699916 28.2537C0.996402 27.824 1.39785 27.4766 1.8664 27.2443C4.58186 25.7256 7.31171 24.2172 10.0559 22.719C23.547 15.4408 37.038 8.15229 50.5291 0.853606C52.4825 -0.202514 54.288 -0.331459 56.3031 0.767643C66.257 6.19151 76.2295 11.5826 86.2204 16.941C92.2183 20.1749 98.21 23.4169 104.195 26.6671C104.729 26.9675 105.24 27.3061 105.724 27.6803C106.116 27.9935 106.431 28.3921 106.645 28.8456C106.858 29.299 106.965 29.7952 106.956 30.296C106.956 30.7565 106.956 31.2171 106.956 31.6776C106.968 43.8189 106.971 55.9601 106.962 68.1014ZM11.4486 30.3697C11.7074 30.5293 11.8614 30.6399 12.0648 30.732C25.6503 38.0798 39.2462 45.4378 52.8522 52.8061C53.0508 52.9331 53.2818 53.0005 53.5178 53.0005C53.7537 53.0005 53.9847 52.9331 54.1833 52.8061C67.5305 45.5729 80.8819 38.35 94.2374 31.1372C94.6564 30.91 95.0693 30.6706 95.5808 30.382L94.829 29.946L65.3676 13.9691C61.621 11.9551 57.9237 9.96571 54.1648 7.98241C53.9619 7.85475 53.7269 7.78699 53.4869 7.78699C53.247 7.78699 53.012 7.85475 52.8091 7.98241C51.6136 8.63328 50.3935 9.21046 49.1981 9.89203C36.9394 16.5276 24.6767 23.1733 12.4099 29.8294L11.4486 30.3697ZM57.4369 126.157C58.6015 125.574 59.6368 125.101 60.6351 124.561C67.6558 120.766 74.6663 116.963 81.6666 113.152C87.4179 110.025 93.1446 106.897 98.8467 103.77C99.0416 103.688 99.2058 103.548 99.3164 103.368C99.4269 103.189 99.4782 102.979 99.4629 102.769C99.4629 81.0205 99.4629 59.2697 99.4629 37.5169C99.4629 37.302 99.4629 37.081 99.4075 36.7064C98.0826 37.3634 96.8687 37.9345 95.7102 38.5485C88.2334 42.5806 80.7731 46.6167 73.3291 50.657C68.689 53.1684 64.0859 55.7104 59.4026 58.1604C57.9668 58.9095 57.3506 59.7875 57.3568 61.4147C57.4266 82.6435 57.4431 103.87 57.4061 125.095L57.4369 126.157ZM7.88684 36.8415L7.5849 36.9582V101.314C7.5849 101.774 7.5849 102.235 7.62803 102.695C7.63551 102.964 7.71711 103.225 7.86386 103.451C8.01062 103.676 8.21686 103.857 8.45992 103.973C10.8755 105.238 13.2849 106.509 15.7005 107.767C15.9477 107.877 16.2007 107.973 16.4584 108.056V107.116C16.4584 100.841 16.4584 94.5597 16.5139 88.2782C16.5066 86.7938 16.5766 85.3099 16.7234 83.8327C16.7632 83.5341 16.8716 83.2487 17.0401 82.9986C17.2086 82.7486 17.4328 82.5406 17.6951 82.3909C17.9574 82.2412 18.2508 82.1538 18.5525 82.1355C18.8543 82.1172 19.1562 82.1685 19.4348 82.2854C20.1269 82.5089 20.7972 82.7945 21.4375 83.1388C27.2053 86.2888 32.9422 89.4817 38.6916 92.6132C39.3996 92.9249 39.9952 93.4448 40.3983 94.1033C40.8014 94.7618 40.9928 95.5274 40.9469 96.2974C40.8915 104.458 40.9469 112.624 40.9469 120.785C40.9266 121.002 40.9752 121.22 41.0857 121.408C41.1962 121.597 41.3632 121.746 41.5631 121.835C43.4118 122.848 45.2604 123.898 47.1091 124.905C47.8547 125.31 48.6373 125.648 49.574 126.09C49.6417 124.61 49.7527 123.278 49.7527 121.945C49.7527 101.993 49.7527 82.0438 49.7527 62.0963C49.7527 59.1797 49.8389 59.3884 47.1646 57.9393C35.2058 51.4675 23.2348 44.9896 11.2514 38.5055C10.1607 37.916 9.00836 37.4064 7.88684 36.8415ZM21.0924 87.8484C21.0924 88.1493 21.0369 88.3089 21.0369 88.4624C21.0369 95.7652 21.0554 103.068 21.0924 110.371C21.0792 110.538 21.1183 110.705 21.2044 110.849C21.2905 110.993 21.4193 111.107 21.573 111.175C26.2933 113.672 31.0176 116.179 35.746 118.697C35.9305 118.785 36.1198 118.863 36.313 118.93C36.313 118.636 36.3561 118.427 36.3561 118.224C36.3561 111.089 36.3807 103.954 36.43 96.8193C36.4315 96.6407 36.3771 96.4661 36.2744 96.3198C36.1717 96.1734 36.0258 96.0626 35.857 96.0026L26.4412 90.8141L21.0924 87.8484Z" fill="black"/>
        <path d="M11.4375 30.3696L12.4111 29.8293C24.678 23.1732 36.9407 16.5193 49.1993 9.86736C50.3948 9.21036 51.6149 8.59633 52.8103 7.98231C53.0132 7.85464 53.2482 7.78688 53.4882 7.78688C53.7281 7.78688 53.9632 7.85464 54.166 7.98231C57.8633 9.99631 61.6407 11.9857 65.3689 13.9997L94.8302 29.9275L95.582 30.3635C95.0705 30.652 94.6577 30.8915 94.2386 31.1187C80.8832 38.3314 67.5318 45.5544 54.1845 52.7876C53.9859 52.9145 53.7549 52.982 53.519 52.982C53.2831 52.982 53.0521 52.9145 52.8535 52.7876C39.2474 45.4316 25.6372 38.0797 12.0229 30.7319C11.8504 30.6398 11.7086 30.5292 11.4375 30.3696Z" fill="#4BC4F9"/>
        <path d="M57.4253 126.163V125.095C57.4253 103.87 57.4088 82.6434 57.376 61.4146C57.376 59.7874 57.9922 58.9094 59.4218 58.1603C64.0927 55.7042 68.7082 53.1683 73.3483 50.6569C80.784 46.6289 88.2218 42.5989 95.6616 38.5668C96.8324 37.9528 98.0463 37.3387 99.3589 36.7247C99.3589 37.0993 99.4143 37.3387 99.4143 37.5352C99.4143 59.2921 99.4143 81.0429 99.4143 102.787C99.4296 102.998 99.3783 103.207 99.2678 103.387C99.1572 103.566 98.993 103.707 98.7981 103.788C93.0673 106.908 87.3406 110.035 81.618 113.171C74.6136 116.978 67.6031 120.78 60.5865 124.579C59.6252 125.107 58.5899 125.58 57.4253 126.163ZM95.2117 59.5602H95.1131C95.1131 57.2822 95.1624 54.998 95.1131 52.72C95.127 52.3349 95.038 51.9531 94.855 51.6136C94.6721 51.2742 94.4019 50.9892 94.0721 50.788C93.7423 50.5869 93.3647 50.4767 92.9781 50.4687C92.5915 50.4608 92.2097 50.5554 91.8718 50.7429C88.4703 52.4867 85.1366 54.3349 81.7844 56.1647C81.4784 56.3264 81.2185 56.5627 81.0288 56.8515C80.8392 57.1403 80.726 57.4723 80.6998 57.8164C80.632 58.5655 80.5827 59.3146 80.5827 60.0699C80.5827 63.4798 80.5827 66.8896 80.5827 70.2995C80.5827 71.0916 80.6259 71.8837 80.6998 72.6758C80.8477 74.2415 82.0555 75.0029 83.6638 74.5178C84.3153 74.3169 84.9466 74.0559 85.5494 73.738C87.3611 72.7924 89.1543 71.8161 90.9413 70.8337C91.9026 70.3118 92.8701 69.7899 93.7944 69.2065C94.1423 69.0331 94.4422 68.7773 94.6679 68.4615C94.8935 68.1457 95.0379 67.7795 95.0885 67.3952C95.1316 66.7812 95.2117 66.2285 95.2179 65.6452C95.2241 63.6374 95.2117 61.6111 95.2117 59.5602ZM95.2117 88.3764H95.1193C95.1193 86.1413 95.1624 83.9001 95.1193 81.6651C95.0762 79.6879 93.4309 78.7485 91.5699 79.6634C89.2283 80.8239 86.9359 82.0826 84.6374 83.3475C83.633 83.8878 82.6594 84.4834 81.6981 85.079C81.39 85.2563 81.1343 85.5115 80.9568 85.8187C80.7794 86.126 80.6865 86.4745 80.6875 86.829C80.6444 89.2851 80.5827 91.8088 80.5827 94.2955C80.5827 96.6595 80.6197 99.0235 80.7121 101.381C80.758 101.927 80.9734 102.444 81.3284 102.861C81.9939 103.666 83.023 103.825 84.2492 103.187C87.5029 101.498 90.7133 99.7296 93.9238 97.9674C94.2536 97.8051 94.5361 97.5613 94.7443 97.2592C94.9525 96.9572 95.0795 96.6069 95.1131 96.242C95.1624 95.6587 95.2364 95.0753 95.2425 94.492C95.2241 92.4535 95.2117 90.4272 95.2117 88.4193V88.3764ZM75.9919 99.3797C75.9919 97.7034 75.9919 96.0271 75.9919 94.3569C76.0137 93.4161 75.9766 92.4748 75.881 91.5386C75.69 90.0097 74.4637 89.3281 72.954 89.9298C71.8514 90.3712 70.7772 90.8798 69.7373 91.4526C67.3833 92.7298 65.054 94.0438 62.7186 95.3578C62.4021 95.519 62.1367 95.7644 61.9518 96.0668C61.7668 96.3692 61.6697 96.7168 61.671 97.0709C61.671 97.9674 61.5724 98.8639 61.5663 99.7603C61.5663 103.215 61.5663 106.67 61.5663 110.125C61.5695 110.711 61.6127 111.295 61.6957 111.875C61.9298 113.68 63.4642 114.497 65.1835 113.607C68.4186 111.918 71.5983 110.143 74.7964 108.387C75.186 108.196 75.5106 107.896 75.7297 107.522C75.9489 107.149 76.0529 106.719 76.0289 106.287C75.9796 104.003 75.9919 101.701 75.9919 99.3981V99.3797ZM75.9919 70.232C75.9919 68.0338 75.9919 65.8417 75.9919 63.6435C75.9923 63.2459 75.9551 62.8491 75.881 62.4584C75.813 62.0258 75.5862 61.6337 75.2447 61.358C74.9032 61.0824 74.4712 60.9428 74.0323 60.9664C73.4807 60.9485 72.9325 61.0578 72.4302 61.2856C69.119 63.054 65.8325 64.8613 62.5707 66.7075C62.1497 67.0206 61.8512 67.47 61.7265 67.9785C61.5966 68.571 61.5468 69.1781 61.5786 69.7837C61.5786 73.0319 61.5786 76.274 61.5786 79.5221C61.5786 80.7133 61.634 81.9046 61.7018 83.0958C61.7881 84.6861 63.1684 85.515 64.7829 84.9378C65.2606 84.7648 65.7259 84.5597 66.1756 84.3238C68.8623 82.8686 71.5305 81.3826 74.2295 79.952C74.8212 79.6972 75.3179 79.264 75.6495 78.7132C75.9811 78.1625 76.131 77.5219 76.0782 76.8818C75.9611 74.6898 76.0104 72.4547 76.0104 70.2504L75.9919 70.232Z" fill="#4BC4F9"/>
        <path d="M7.88788 36.8415C9.0094 37.3942 10.1617 37.9038 11.2524 38.4933C23.2399 44.9855 35.2171 51.4798 47.1841 57.9762C49.8585 59.4253 49.7722 59.2043 49.7722 62.1332C49.7722 82.0848 49.7722 102.034 49.7722 121.982C49.7722 123.314 49.6613 124.647 49.5935 126.127C48.663 125.685 47.8804 125.347 47.1286 124.942C45.28 123.928 43.4313 122.878 41.5827 121.871C41.3827 121.783 41.2157 121.633 41.1052 121.445C40.9947 121.257 40.9462 121.039 40.9664 120.821C40.9664 112.661 40.8987 104.495 40.9664 96.3342C41.0124 95.5643 40.8209 94.7987 40.4178 94.1402C40.0147 93.4817 39.4192 92.9618 38.7111 92.6501C32.9371 89.5186 27.2001 86.3257 21.457 83.1757C20.8124 82.8156 20.1358 82.5155 19.4358 82.2793C19.1572 82.1624 18.8553 82.1111 18.5536 82.1294C18.2518 82.1477 17.9584 82.2351 17.6961 82.3848C17.4338 82.5345 17.2097 82.7425 17.0412 82.9925C16.8726 83.2426 16.7642 83.528 16.7244 83.8266C16.5776 85.3038 16.5077 86.7877 16.5149 88.2721C16.478 94.5536 16.478 100.835 16.4595 107.11V108.068C16.2018 107.986 15.9488 107.889 15.7015 107.78C13.2859 106.521 10.8765 105.25 8.46097 103.985C8.2179 103.869 8.01166 103.688 7.86491 103.463C7.71815 103.238 7.63655 102.976 7.62907 102.708C7.59826 102.247 7.58594 101.787 7.58594 101.326V36.9705L7.88788 36.8415ZM26.2758 65.3445C26.2758 62.9375 26.2758 60.5367 26.2758 58.1297C26.2827 57.6595 26.154 57.1972 25.9049 56.7977C25.6559 56.3982 25.297 56.0784 24.8708 55.8763C22.1348 54.378 19.405 52.8737 16.6567 51.3939C16.0671 51.0833 15.4478 50.8324 14.808 50.6448C14.5026 50.5248 14.173 50.4788 13.8462 50.5103C13.5194 50.5419 13.2048 50.6502 12.9282 50.8264C12.6516 51.0025 12.4208 51.2415 12.2549 51.5238C12.0889 51.806 11.9924 52.1234 11.9734 52.45C11.9426 52.843 11.9364 53.2421 11.9426 53.6412C11.9426 58.1604 11.9426 62.6796 11.9734 67.1988C11.9579 67.5859 12.0535 67.9694 12.2488 68.3043C12.4442 68.6393 12.7312 68.9118 13.0764 69.09C14.3582 69.8084 15.6214 70.5637 16.9155 71.2514C18.9921 72.3566 21.0565 73.4803 23.1886 74.4812C23.507 74.6566 23.8662 74.7455 24.23 74.7391C24.5939 74.7327 24.9496 74.6311 25.2617 74.4446C25.5737 74.258 25.8311 73.993 26.008 73.6761C26.1849 73.3593 26.2751 73.0017 26.2697 72.6391C26.2943 70.2137 26.2758 67.7883 26.2758 65.3568V65.3445ZM30.9283 70.3365C30.9283 72.5531 30.9776 74.7697 30.9283 76.9864C30.9027 77.5841 31.053 78.1763 31.3606 78.6901C31.6682 79.2039 32.1198 79.6169 32.6598 79.8784C32.8324 79.9767 32.9987 80.0811 33.1713 80.1732C35.174 81.2723 37.1767 82.3714 39.1856 83.452C40.1099 83.9555 41.0342 84.4529 42.014 84.8766C43.7394 85.6441 45.2368 84.7354 45.2615 82.9547C45.2615 82.2424 45.3108 81.5302 45.3108 80.824C45.3108 76.7653 45.2615 72.7066 45.28 68.6479C45.289 68.104 45.1341 67.5698 44.8353 67.1145C44.5365 66.6591 44.1076 66.3035 43.6039 66.0936C41.4348 64.9331 39.2903 63.7358 37.1274 62.5753C36.2508 62.0689 35.3431 61.6177 34.4099 61.2244C32.3764 60.4507 30.996 61.3226 30.9529 63.3796C30.8974 65.7006 30.9283 68.0216 30.9283 70.3488V70.3365Z" fill="#4BC4F9"/>
        <path d="M21.0935 87.8606L26.4423 90.814L35.8273 96.0209C35.9961 96.0809 36.142 96.1917 36.2447 96.3381C36.3474 96.4844 36.4018 96.659 36.4004 96.8376C36.3716 103.973 36.3572 111.108 36.3572 118.242C36.3572 118.445 36.3572 118.654 36.3141 118.949C36.121 118.881 35.9317 118.803 35.7472 118.715C31.0311 116.21 26.3067 113.703 21.5742 111.193C21.4204 111.125 21.2916 111.011 21.2055 110.867C21.1195 110.723 21.0803 110.556 21.0935 110.389C21.0935 103.086 21.0751 95.7835 21.0381 88.4807C21.0381 88.3211 21.0627 88.1614 21.0935 87.8606Z" fill="#FAFBFC"/>
        <path d="M95.2123 59.5602C95.2123 61.5927 95.2123 63.6189 95.2123 65.6452C95.2123 66.2592 95.126 66.8119 95.0829 67.3952C95.0323 67.7795 94.8879 68.1456 94.6623 68.4614C94.4367 68.7772 94.1368 69.0331 93.7889 69.2065C92.8645 69.8206 91.8971 70.3118 90.9358 70.8337C89.1487 71.8161 87.3555 72.7924 85.5439 73.738C84.941 74.0558 84.3098 74.3169 83.6582 74.5178C82.0499 75.0029 80.8421 74.2415 80.6942 72.6758C80.6203 71.8837 80.5771 71.0916 80.5771 70.2995C80.5771 66.8855 80.5771 63.4757 80.5771 60.0699C80.5771 59.3146 80.6264 58.5655 80.6942 57.8164C80.7204 57.4723 80.8336 57.1403 81.0232 56.8515C81.2129 56.5627 81.4728 56.3264 81.7788 56.1647C85.131 54.3226 88.4647 52.4805 91.8663 50.7429C92.2041 50.5554 92.5859 50.4608 92.9725 50.4687C93.3591 50.4767 93.7367 50.5869 94.0665 50.788C94.3963 50.9892 94.6665 51.2742 94.8494 51.6136C95.0324 51.9531 95.1215 52.3349 95.1076 52.72C95.1692 54.998 95.1076 57.2822 95.1076 59.5602H95.2123ZM85.2049 68.9548C87.0105 67.9662 88.6496 67.1127 90.2641 66.161C90.347 66.082 90.4123 65.9865 90.4558 65.8807C90.4993 65.7749 90.5201 65.6612 90.5167 65.547C90.5167 62.7225 90.5167 59.8979 90.5167 57.0734C90.5167 56.8954 90.4736 56.7234 90.4428 56.4594C90.1655 56.5761 89.9621 56.6498 89.7711 56.748C88.4647 57.4296 87.1645 58.1234 85.8458 58.7804C85.6512 58.8552 85.4861 58.9907 85.375 59.1666C85.264 59.3426 85.213 59.5495 85.2296 59.7567C85.2296 62.5628 85.2296 65.3689 85.2296 68.1688L85.2049 68.9548Z" fill="black"/>
        <path d="M95.2126 88.4195C95.2126 90.4519 95.2126 92.4782 95.2126 94.5106C95.2126 95.1246 95.1325 95.6772 95.0832 96.2605C95.0495 96.6255 94.9225 96.9757 94.7143 97.2778C94.5061 97.5798 94.2236 97.8237 93.8938 97.9859C90.6834 99.7482 87.4729 101.517 84.2192 103.205C82.9868 103.819 81.9639 103.684 81.2984 102.88C80.9434 102.462 80.728 101.945 80.6821 101.4C80.5897 99.0421 80.5527 96.6781 80.5527 94.3141C80.5527 91.8273 80.6144 89.3344 80.6575 86.8476C80.6565 86.4931 80.7494 86.1445 80.9268 85.8373C81.1043 85.53 81.36 85.2748 81.6681 85.0976C82.6294 84.4836 83.603 83.9064 84.6074 83.3661C86.9059 82.138 89.1983 80.867 91.5399 79.6819C93.3886 78.767 95.0462 79.6819 95.0893 81.6836C95.1448 83.9187 95.0893 86.1599 95.0893 88.3949L95.2126 88.4195ZM90.4677 85.202C88.8101 86.0739 87.3065 86.8844 85.7844 87.6581C85.6083 87.73 85.4604 87.8568 85.3626 88.0195C85.2649 88.1822 85.2226 88.3721 85.2422 88.5607C85.2422 91.3852 85.2422 94.2097 85.2052 97.0342C85.2052 97.2368 85.2052 97.4333 85.2483 97.7281C85.5256 97.5991 85.7228 97.5193 85.9077 97.421C87.2633 96.6904 88.6067 95.9412 89.9747 95.2351C90.1516 95.168 90.3018 95.0455 90.4029 94.8861C90.504 94.7267 90.5505 94.5389 90.5355 94.3509C90.5355 91.5448 90.5355 88.7449 90.5355 85.9388C90.5293 85.73 90.4985 85.552 90.4677 85.1774V85.202Z" fill="black"/>
        <path d="M75.9919 99.3981C75.9919 101.701 75.9919 104.003 75.9919 106.306C76.0159 106.738 75.9119 107.167 75.6927 107.541C75.4736 107.914 75.149 108.215 74.7595 108.406C71.5613 110.162 68.3816 111.936 65.1465 113.625C63.4272 114.515 61.8929 113.699 61.6587 111.893C61.5757 111.314 61.5325 110.729 61.5293 110.143C61.5293 106.689 61.5293 103.234 61.5293 99.7788C61.5293 98.8823 61.6094 97.9858 61.6341 97.0894C61.6327 96.7352 61.7299 96.3877 61.9148 96.0852C62.0997 95.7828 62.3652 95.5374 62.6816 95.3762C65.0171 94.0622 67.3464 92.7482 69.7003 91.471C70.7402 90.8982 71.8144 90.3896 72.917 89.9483C74.4267 89.3342 75.653 90.0281 75.844 91.557C75.9397 92.4933 75.9767 93.4345 75.9549 94.3754C75.9549 96.0455 75.9549 97.7218 75.9549 99.3981H75.9919ZM66.2249 107.902C66.3272 107.905 66.4293 107.89 66.5268 107.859C68.0735 107.073 69.6079 106.287 71.1485 105.471C71.2435 105.398 71.3211 105.306 71.3755 105.199C71.4299 105.093 71.4597 104.976 71.4627 104.857C71.4627 101.952 71.4627 99.0481 71.4627 96.1376C71.4489 96.0028 71.4242 95.8693 71.3888 95.7385C71.3054 95.7445 71.2228 95.7589 71.1423 95.7815C69.5771 96.6166 67.9996 97.4455 66.459 98.3174C66.3624 98.4023 66.2858 98.5074 66.2347 98.6252C66.1836 98.7431 66.1592 98.8707 66.1633 98.999C66.1633 100.509 66.2064 102.014 66.2187 103.518C66.231 105.023 66.2249 106.398 66.2249 107.902Z" fill="black"/>
        <path d="M76.0108 70.2505C76.0108 72.4732 75.9615 74.6899 76.0108 76.9126C76.0637 77.5527 75.9138 78.1932 75.5821 78.744C75.2505 79.2947 74.7539 79.728 74.1622 79.9827C71.4631 81.4134 68.7949 82.8993 66.1082 84.3546C65.6585 84.5905 65.1932 84.7956 64.7156 84.9686C63.1257 85.5458 61.7454 84.7169 61.6345 83.1265C61.5667 81.9353 61.5174 80.7441 61.5112 79.5529C61.5112 76.3047 61.5112 73.0627 61.5112 69.8145C61.4795 69.2089 61.5292 68.6018 61.6591 68.0093C61.7838 67.5008 62.0823 67.0514 62.5033 66.7383C65.7611 64.8839 69.0476 63.0766 72.3628 61.3164C72.8651 61.0886 73.4134 60.9793 73.965 60.9971C74.4038 60.9736 74.8359 61.1132 75.1774 61.3888C75.5189 61.6645 75.7456 62.0566 75.8136 62.4892C75.8878 62.8799 75.9249 63.2767 75.9246 63.6743C76.017 65.8602 76.0108 68.0523 76.0108 70.2505ZM71.5309 66.8304C71.3406 66.8905 71.1535 66.9602 70.9702 67.0391C69.6884 67.7084 68.419 68.4084 67.1127 69.0408C66.7893 69.18 66.5198 69.4197 66.3443 69.724C66.1689 70.0283 66.0969 70.381 66.139 70.7294C66.1822 73.3881 66.1945 76.0407 66.2253 78.7117C66.2253 78.8529 66.2253 78.9942 66.2684 79.1845C66.4424 79.1236 66.6131 79.0539 66.7799 78.9757C68.1972 78.2389 69.6145 77.4837 71.0441 76.7591C71.189 76.7 71.3106 76.5956 71.3907 76.4616C71.4707 76.3275 71.5048 76.1712 71.4878 76.0161C71.4878 74.5916 71.4878 73.1671 71.5309 71.718C71.5371 70.1338 71.5309 68.5312 71.5309 66.8304Z" fill="black"/>
        <path d="M26.2753 65.3569C26.2753 67.8129 26.2753 70.2138 26.2753 72.6392C26.2808 73.0017 26.1905 73.3594 26.0136 73.6762C25.8367 73.9931 25.5793 74.2581 25.2673 74.4446C24.9553 74.6312 24.5995 74.7328 24.2357 74.7392C23.8718 74.7456 23.5127 74.6567 23.1942 74.4812C21.0621 73.4804 18.9978 72.3567 16.9211 71.2515C15.6271 70.5638 14.3638 69.8085 13.0821 69.0901C12.7369 68.9119 12.4498 68.6393 12.2545 68.3044C12.0591 67.9695 11.9636 67.586 11.9791 67.1989C11.9791 62.6797 11.9791 58.1605 11.9482 53.6413C11.9482 53.2422 11.9482 52.8431 11.9791 52.4501C11.9981 52.1235 12.0945 51.8061 12.2605 51.5238C12.4265 51.2416 12.6572 51.0026 12.9339 50.8264C13.2105 50.6503 13.5251 50.542 13.8518 50.5104C14.1786 50.4788 14.5082 50.5249 14.8137 50.6449C15.4534 50.8324 16.0727 51.0834 16.6623 51.394C19.4106 52.8738 22.1405 54.3781 24.8765 55.8763C25.3062 56.0745 25.6696 56.3918 25.9232 56.7904C26.1767 57.1889 26.3096 57.6518 26.3061 58.1237C26.3061 60.5306 26.3061 62.9315 26.3061 65.3384L26.2753 65.3569ZM16.6007 56.4412C16.5629 56.5718 16.5361 56.7053 16.5206 56.8403C16.5206 59.7938 16.5206 62.7411 16.5206 65.6946C16.5417 65.8226 16.5915 65.9442 16.6661 66.0505C16.7408 66.1568 16.8385 66.245 16.9519 66.3086C18.3261 67.0884 19.7187 67.8314 21.1114 68.5805C21.3147 68.691 21.5304 68.7708 21.7769 68.8813C21.8037 68.7724 21.8222 68.6615 21.8324 68.5498C21.8016 65.5349 21.7831 62.5201 21.7276 59.5052C21.7033 59.3775 21.6517 59.2565 21.5762 59.1506C21.5007 59.0446 21.4031 58.9561 21.2901 58.8912C20.224 58.2772 19.1272 57.7123 18.0365 57.1412C17.599 56.9079 17.1183 56.693 16.6007 56.4412Z" fill="black"/>
        <path d="M30.9279 70.3489C30.9279 68.0217 30.9279 65.7007 30.9279 63.3797C30.9711 61.3228 32.3514 60.4508 34.3849 61.2245C35.3182 61.6178 36.2258 62.069 37.1024 62.5754C39.2653 63.7359 41.4159 64.9332 43.5789 66.0937C44.0826 66.3036 44.5115 66.6592 44.8103 67.1146C45.1091 67.5699 45.264 68.1041 45.255 68.648C45.255 72.7067 45.255 76.7654 45.2858 80.8241C45.2858 81.5302 45.2427 82.2425 45.2365 82.9548C45.2365 84.7354 43.7144 85.6442 41.989 84.8767C41.0216 84.453 40.0849 83.9556 39.1606 83.4521C37.1517 82.3715 35.149 81.2724 33.1463 80.1733C32.9738 80.0812 32.8074 79.9768 32.6348 79.8785C32.0933 79.6205 31.6393 79.2106 31.3284 78.699C31.0175 78.1874 30.8633 77.5965 30.8848 76.9988C30.9526 74.7821 30.8848 72.5655 30.8848 70.3489H30.9279ZM40.8429 79.3136C40.8429 76.0777 40.8429 73.0506 40.8429 70.0173C40.8212 69.8838 40.7709 69.7566 40.6954 69.6443C40.6199 69.5319 40.521 69.4372 40.4054 69.3665C39.1729 68.6665 37.9836 67.9603 36.708 67.3463C35.833 66.9165 35.4756 67.1437 35.4756 68.0893C35.4756 70.748 35.4756 73.4067 35.5249 76.0716C35.5239 76.172 35.5443 76.2716 35.5846 76.3636C35.625 76.4557 35.6844 76.5382 35.7591 76.6058C37.3982 77.4838 39.0435 78.3557 40.8429 79.3136Z" fill="black"/>
        <path d="M85.2043 68.9733V68.1567C85.2043 65.3567 85.2536 62.5507 85.2043 59.7446C85.1876 59.5374 85.2386 59.3304 85.3497 59.1545C85.4607 58.9785 85.6259 58.8431 85.8205 58.7683C87.1392 58.1113 88.4394 57.4174 89.7458 56.7359C89.9368 56.6376 90.1402 56.5639 90.4175 56.4473C90.4483 56.6929 90.4852 56.8648 90.4914 57.0613C90.4914 59.8858 90.4914 62.7103 90.4914 65.5348C90.4948 65.6491 90.474 65.7628 90.4305 65.8685C90.387 65.9743 90.3217 66.0698 90.2388 66.1488C88.6489 67.1006 87.0098 67.9848 85.2043 68.9733Z" fill="#FAFBFC"/>
        <path d="M90.4669 85.1773C90.4977 85.5518 90.5285 85.7299 90.5285 85.9141C90.5285 88.7202 90.5285 91.5201 90.5285 94.3262C90.5436 94.5142 90.4971 94.702 90.396 94.8614C90.2949 95.0208 90.1446 95.1433 89.9678 95.2104C88.5998 95.9165 87.2564 96.6656 85.9007 97.3963C85.7159 97.4946 85.5187 97.5744 85.2414 97.7033C85.2414 97.4086 85.1982 97.2121 85.1982 97.0095C85.1982 94.185 85.2352 91.3605 85.2352 88.536C85.2157 88.3474 85.2579 88.1575 85.3557 87.9948C85.4534 87.8321 85.6014 87.7053 85.7775 87.6334C87.3057 86.8597 88.8093 86.0492 90.4669 85.1773Z" fill="#FAFBFC"/>
        <path d="M66.2248 107.903C66.2248 106.398 66.2248 104.961 66.2248 103.518C66.2248 102.075 66.1632 100.51 66.1694 98.9992C66.1653 98.8709 66.1897 98.7433 66.2408 98.6255C66.292 98.5076 66.3686 98.4025 66.4652 98.3176C68.0057 97.4457 69.5832 96.6168 71.1484 95.7817C71.2289 95.7591 71.3115 95.7447 71.3949 95.7387C71.4303 95.8695 71.4551 96.003 71.4688 96.1378C71.4688 99.0483 71.4688 101.953 71.4688 104.857C71.4658 104.976 71.436 105.093 71.3817 105.2C71.3273 105.306 71.2497 105.399 71.1546 105.471C69.6325 106.288 68.0735 107.074 66.533 107.86C66.4334 107.891 66.3292 107.906 66.2248 107.903Z" fill="#FAFBFC"/>
        <path d="M71.5306 66.8302C71.5306 68.5311 71.5306 70.1337 71.5306 71.7424C71.5306 73.1608 71.4875 74.5854 71.4875 76.0406C71.5045 76.1956 71.4704 76.352 71.3903 76.486C71.3103 76.6201 71.1887 76.7245 71.0438 76.7836C69.6142 77.5081 68.1969 78.2634 66.7796 79.0002C66.6127 79.0784 66.442 79.1481 66.2681 79.2089C66.2681 79.0186 66.225 78.8774 66.225 78.7361C66.225 76.0774 66.1818 73.4249 66.1387 70.7539C66.0965 70.4054 66.1685 70.0527 66.344 69.7484C66.5195 69.4441 66.789 69.2045 67.1123 69.0653C68.4187 68.4513 69.6881 67.7329 70.9698 67.0636C71.1526 66.9763 71.3398 66.8985 71.5306 66.8302Z" fill="#FAFBFC"/>
        <path d="M16.6017 56.4411C17.1193 56.6929 17.6 56.9078 18.056 57.1473C19.1467 57.7183 20.2435 58.2893 21.3096 58.8972C21.4226 58.9622 21.5202 59.0506 21.5957 59.1566C21.6712 59.2626 21.7228 59.3836 21.7471 59.5113C21.8026 62.5261 21.821 65.541 21.8519 68.5558C21.8417 68.6676 21.8232 68.7784 21.7964 68.8874C21.5499 68.7769 21.3342 68.697 21.1309 68.5865C19.7382 67.8374 18.3456 67.0944 16.9714 66.3146C16.8579 66.251 16.7603 66.1628 16.6856 66.0565C16.6109 65.9503 16.5612 65.8286 16.5401 65.7006C16.5093 62.7472 16.5401 59.7998 16.5401 56.8464C16.5492 56.7098 16.5698 56.5743 16.6017 56.4411Z" fill="#FAFBFC"/>
        <path d="M40.8432 79.3133C39.0439 78.3555 37.3986 77.4713 35.7717 76.5932C35.6971 76.5257 35.6377 76.4432 35.5973 76.3511C35.5569 76.259 35.5366 76.1595 35.5376 76.059C35.5376 73.4064 35.4883 70.7477 35.4883 68.0767C35.4883 67.1311 35.8334 66.9039 36.7207 67.3338C37.9532 67.9478 39.1856 68.6539 40.418 69.3539C40.5337 69.4246 40.6326 69.5194 40.7081 69.6317C40.7836 69.744 40.8339 69.8713 40.8555 70.0048C40.8494 73.0687 40.8432 76.0774 40.8432 79.3133Z" fill="#FAFBFC"/>
    </g>
    <path d="M20.818 156.768C20.998 157.2 21.088 157.512 21.088 157.704C21.088 158.16 20.716 158.544 19.972 158.856C19.588 159.024 19.276 159.108 19.036 159.108C18.808 159.108 18.616 159.054 18.46 158.946C18.316 158.826 18.208 158.706 18.136 158.586C18.016 158.358 17.548 157.272 16.732 155.328L16.174 155.364H13.906V157.398C13.906 157.674 13.894 157.884 13.87 158.028C13.858 158.16 13.804 158.316 13.708 158.496C13.54 158.82 13.072 158.982 12.304 158.982C11.464 158.982 10.972 158.76 10.828 158.316C10.756 158.112 10.72 157.8 10.72 157.38V147.39C10.72 147.114 10.726 146.91 10.738 146.778C10.762 146.634 10.822 146.472 10.918 146.292C11.086 145.968 11.554 145.806 12.322 145.806H16.21C17.266 145.806 18.292 146.19 19.288 146.958C19.768 147.33 20.164 147.834 20.476 148.47C20.788 149.106 20.944 149.814 20.944 150.594C20.944 151.95 20.494 153.066 19.594 153.942C19.858 154.578 20.266 155.52 20.818 156.768ZM13.906 152.178H16.21C16.558 152.178 16.906 152.046 17.254 151.782C17.602 151.518 17.776 151.122 17.776 150.594C17.776 150.066 17.602 149.67 17.254 149.406C16.906 149.13 16.546 148.992 16.174 148.992H13.906V152.178ZM29.8142 155.814H35.3582C35.6342 155.814 35.8382 155.826 35.9702 155.85C36.1142 155.862 36.2762 155.916 36.4562 156.012C36.7802 156.18 36.9422 156.648 36.9422 157.416C36.9422 158.256 36.7202 158.748 36.2762 158.892C36.0722 158.964 35.7602 159 35.3402 159H28.2122C27.3722 159 26.8802 158.772 26.7362 158.316C26.6642 158.124 26.6282 157.818 26.6282 157.398V147.39C26.6282 146.778 26.7422 146.364 26.9702 146.148C27.1982 145.92 27.6302 145.806 28.2662 145.806H35.3582C35.6342 145.806 35.8382 145.818 35.9702 145.842C36.1142 145.854 36.2762 145.908 36.4562 146.004C36.7802 146.172 36.9422 146.64 36.9422 147.408C36.9422 148.248 36.7202 148.74 36.2762 148.884C36.0722 148.956 35.7602 148.992 35.3402 148.992H29.8142V150.81H33.3782C33.6542 150.81 33.8582 150.822 33.9902 150.846C34.1342 150.858 34.2962 150.912 34.4762 151.008C34.8002 151.176 34.9622 151.644 34.9622 152.412C34.9622 153.252 34.7342 153.744 34.2782 153.888C34.0742 153.96 33.7622 153.996 33.3422 153.996H29.8142V155.814ZM51.1735 146.364C51.2935 146.148 51.4675 146.004 51.6955 145.932C51.9235 145.86 52.2055 145.824 52.5415 145.824C52.8895 145.824 53.1655 145.854 53.3695 145.914C53.5855 145.974 53.7415 146.046 53.8375 146.13C53.9455 146.214 54.0235 146.34 54.0715 146.508C54.1435 146.7 54.1795 147.006 54.1795 147.426V157.416C54.1795 157.704 54.1675 157.914 54.1435 158.046C54.1315 158.178 54.0775 158.334 53.9815 158.514C53.8135 158.838 53.3455 159 52.5775 159C52.1095 159 51.7855 158.964 51.6055 158.892C51.4255 158.82 51.2755 158.706 51.1555 158.55C48.4555 154.95 46.6795 152.598 45.8275 151.494V157.416C45.8275 157.704 45.8155 157.914 45.7915 158.046C45.7795 158.178 45.7255 158.334 45.6295 158.514C45.4615 158.838 44.9935 159 44.2255 159C43.4815 159 43.0255 158.838 42.8575 158.514C42.7615 158.334 42.7015 158.172 42.6775 158.028C42.6655 157.884 42.6595 157.674 42.6595 157.398V147.354C42.6595 146.898 42.7135 146.568 42.8215 146.364C42.9415 146.148 43.1155 146.004 43.3435 145.932C43.5715 145.86 43.8655 145.824 44.2255 145.824C44.5855 145.824 44.8675 145.86 45.0715 145.932C45.2875 145.992 45.4375 146.064 45.5215 146.148C45.5695 146.184 45.7075 146.34 45.9355 146.616C48.4675 150.06 50.1595 152.334 51.0115 153.438V147.354C51.0115 146.898 51.0655 146.568 51.1735 146.364ZM61.0313 145.788H71.0393C71.4233 145.788 71.7053 145.836 71.8853 145.932C72.0653 146.016 72.1853 146.154 72.2453 146.346C72.3053 146.538 72.3353 146.79 72.3353 147.102C72.3353 147.414 72.3053 147.666 72.2453 147.858C72.1853 148.038 72.0833 148.164 71.9393 148.236C71.7233 148.344 71.4173 148.398 71.0213 148.398H67.5833V157.452C67.5833 157.728 67.5713 157.932 67.5473 158.064C67.5353 158.196 67.4813 158.352 67.3853 158.532C67.3013 158.7 67.1453 158.82 66.9173 158.892C66.6893 158.964 66.3893 159 66.0173 159C65.6453 159 65.3453 158.964 65.1173 158.892C64.9013 158.82 64.7453 158.7 64.6493 158.532C64.5653 158.352 64.5113 158.196 64.4873 158.064C64.4753 157.92 64.4693 157.71 64.4693 157.434V148.398H61.0133C60.6293 148.398 60.3473 148.356 60.1673 148.272C59.9873 148.176 59.8673 148.032 59.8073 147.84C59.7473 147.648 59.7173 147.396 59.7173 147.084C59.7173 146.772 59.7473 146.526 59.8073 146.346C59.8673 146.154 59.9693 146.022 60.1133 145.95C60.3293 145.842 60.6353 145.788 61.0313 145.788Z" fill="white"/>
    <path d="M88.95 150.096L93.774 155.4C94.318 156.008 94.59 156.52 94.59 156.936C94.59 157.352 94.278 157.84 93.654 158.4C93.046 158.96 92.526 159.24 92.094 159.24C91.678 159.24 91.19 158.92 90.63 158.28L86.07 153.048L81.51 158.28C80.934 158.92 80.438 159.24 80.022 159.24C79.622 159.24 79.102 158.96 78.462 158.4C77.838 157.824 77.526 157.336 77.526 156.936C77.526 156.536 77.806 156.024 78.366 155.4L83.19 150.096L78.366 144.792C77.806 144.2 77.526 143.696 77.526 143.28C77.526 142.864 77.838 142.376 78.462 141.816C79.086 141.24 79.606 140.952 80.022 140.952C80.454 140.952 80.95 141.272 81.51 141.912L86.07 147.144L90.63 141.912C91.206 141.272 91.694 140.952 92.094 140.952C92.51 140.952 93.03 141.232 93.654 141.792C94.278 142.352 94.59 142.848 94.59 143.28C94.59 143.712 94.318 144.216 93.774 144.792L88.95 150.096Z" fill="#136695"/>
    <defs>
        <clipPath id="clip0_381:27">
            <rect width="107" height="136" fill="white"/>
        </clipPath>
    </defs>
</svg>